<?xml version="1.0" encoding="utf-8"?>
<!-- Generator: Adobe Illustrator 26.4.1, SVG Export Plug-In . SVG Version: 6.00 Build 0)  -->
<svg version="1.1" id="Слой_1" xmlns="http://www.w3.org/2000/svg" xmlns:xlink="http://www.w3.org/1999/xlink" x="0px" y="0px"
	 viewBox="0 0 290 200" style="enable-background:new 0 0 290 200;" xml:space="preserve">
<style type="text/css">
	.st0{clip-path:url(#SVGID_00000005970742205605756680000003980416172220357770_);}
	.st1{fill:#A0616A;}
	.st2{fill:#3F3D56;}
	.st3{fill:#F0F0F0;}
	.st4{fill:#FFFFFF;}
	.st5{fill:#CACACA;}
	.st6{fill:#834D9B;}
	.st7{fill:#E4E4E4;}
	.st8{fill:#2F2E41;}
	.st9{fill:#FFB6B6;}
	.st10{fill:#CCCCCC;}
</style>
<g>
	<defs>
		<rect id="SVGID_1_" width="289.9" height="200"/>
	</defs>
	<clipPath id="SVGID_00000124123894342095938320000009441784509903639978_">
		<use xlink:href="#SVGID_1_"  style="overflow:visible;"/>
	</clipPath>
	<g style="clip-path:url(#SVGID_00000124123894342095938320000009441784509903639978_);">
		<path class="st1" d="M52,100.9c-0.2,0.3-0.5,0.5-0.8,0.7c-0.3,0.2-0.6,0.3-1,0.3c-0.3,0-0.7,0-1-0.2c-0.3-0.1-0.6-0.3-0.8-0.6
			l-7.4,3.5l0.7-4.4l6.9-2.6c0.4-0.4,1-0.6,1.5-0.5c0.6,0,1.1,0.3,1.5,0.7c0.4,0.4,0.6,1,0.7,1.6S52.3,100.4,52,100.9L52,100.9z"/>
		<path class="st2" d="M47,102.3l-17.2,8.2l0,0L10.1,103c-1.5-0.8-2.6-2.2-3.1-3.9c-0.5-1.7-0.5-3.5,0.2-5.1
			c0.4-0.9,0.9-1.7,1.6-2.3c0.7-0.6,1.5-1.1,2.4-1.4c0.9-0.3,1.8-0.4,2.7-0.3c0.9,0.1,1.8,0.4,2.6,0.9l14.6,9.4l14.2-2L47,102.3z"/>
		<path class="st3" d="M54.2,48.2C47.7,32.8,48,13.3,58.1,0.3c3.4,18,12.6,34.2,26.1,45.6c5.2,4.4,11.4,8.7,12.8,15.6
			c0.9,4.3-0.4,8.9-2.5,12.6c-2.2,3.8-5.2,6.8-8.2,9.9l-0.3,1C72.9,75.5,60.8,63.6,54.2,48.2z"/>
		<path class="st4" d="M58.4,0.5c-2.3,13.6-0.6,28.1,5.1,40.6c1.2,2.7,2.7,5.3,4.6,7.5c1.9,2.1,4.3,3.6,7,4.4
			c2.5,0.8,5.1,1.2,7.3,2.6c2.4,1.5,3.8,3.9,4.4,6.8c0.7,3.5,0.2,7-0.4,10.4c-0.7,3.8-1.4,7.7-0.5,11.6c0.1,0.5-0.6,0.6-0.7,0.2
			c-1.7-6.7,1.6-13.2,1.1-19.9c-0.2-3.1-1.3-6.2-3.8-8c-2.2-1.6-4.9-2.1-7.4-2.8c-2.6-0.8-5-2-7-4c-2-2.1-3.6-4.6-4.9-7.3
			c-2.9-6-4.8-12.5-5.8-19.2c-1.2-7.6-1.1-15.4,0.2-23C57.8-0.2,58.4,0,58.4,0.5z"/>
		<path class="st4" d="M61.4,37.1c-2.1,0.7-4.4,0.6-6.4-0.3c-2-0.9-3.7-2.6-4.7-4.7c-0.2-0.4,0.4-0.8,0.6-0.4c0.9,2,2.5,3.5,4.4,4.4
			c1.9,0.8,4,0.9,6,0.2C61.6,36.3,61.8,37,61.4,37.1L61.4,37.1z"/>
		<path class="st4" d="M73.7,52.8c2.1-4.3,2.6-9.3,1.5-13.9c-0.1-0.5,0.6-0.6,0.7-0.2c1.2,4.9,0.7,10.1-1.5,14.5
			C74.1,53.6,73.5,53.2,73.7,52.8z"/>
		<path class="st4" d="M57.2,15.9c0.9-0.1,1.7-0.4,2.4-1c0.7-0.5,1.3-1.2,1.7-2.1c0.2-0.4,0.8,0,0.6,0.4c-0.4,0.9-1.1,1.7-1.9,2.3
			c-0.8,0.6-1.7,1-2.7,1.1c-0.1,0-0.2,0-0.3-0.1C57,16.5,57,16.4,57,16.3c0-0.1,0-0.2,0-0.3C57.1,16,57.1,15.9,57.2,15.9z"/>
		<path class="st3" d="M111.6,0.4c-0.1,0.3-0.2,0.5-0.4,0.8c-1.6,3.6-2.9,7.4-4,11.3c-0.1,0.3-0.2,0.6-0.2,0.9
			c-2.4,9.4-3.2,19.1-2.2,28.8c0.4,3.8,1,7.7,1.9,11.4c1.3,5.2,3,10.7,2.6,15.8c0,0.5-0.1,1.1-0.2,1.6l-22,14.4c-0.1,0-0.1,0-0.2,0
			l-0.9,0.6c-0.1-0.2-0.1-0.4-0.2-0.6c0-0.1-0.1-0.2-0.1-0.3c0-0.1,0-0.1-0.1-0.2c0,0,0,0,0-0.1c0-0.1,0-0.1-0.1-0.2
			c-0.3-1.1-0.6-2.2-1-3.3c0,0,0,0,0,0c-2.4-8.5-4.1-17.3-4.5-26.1c0-0.3,0-0.5,0-0.8c-0.2-4,0-7.9,0.4-11.9c0.2-2.2,0.6-4.3,1-6.4
			c1.2-5.5,3.1-10.7,5.8-15.5c5.3-9.6,13.5-17.3,23.5-20.1C111.1,0.6,111.3,0.5,111.6,0.4z"/>
		<path class="st4" d="M111.7,0.8c-9.5,9.4-16.3,22.1-18.8,35.7c-0.5,2.9-0.9,6-0.5,9c0.4,2.9,1.4,5.7,3.1,8
			c1.5,2.2,3.3,4.3,4.3,6.8c1.1,2.7,0.8,5.6-0.3,8.2c-1.4,3.2-3.8,5.7-6.2,8c-2.7,2.6-5.5,5.3-6.9,8.9c-0.2,0.4-0.8,0.1-0.6-0.3
			c2.4-6.4,8.7-9.5,12.1-15.2c1.6-2.6,2.4-5.8,1.5-8.8c-0.9-2.7-2.7-4.8-4.3-7c-1.6-2.3-2.8-4.8-3.3-7.7c-0.5-3-0.3-6,0.2-9
			c1.1-6.7,3.2-13.1,6.2-19.1c3.4-6.8,7.8-13,13.1-18.2C111.6-0.2,112,0.5,111.7,0.8L111.7,0.8z"/>
		<path class="st4" d="M93.5,32c-2.1-0.8-3.9-2.3-5-4.4c-1.1-2-1.5-4.4-1.1-6.8c0.1-0.5,0.8-0.4,0.7,0.1c-0.4,2.2,0,4.4,1.1,6.3
			c1,1.9,2.7,3.3,4.6,4.1C94.2,31.5,93.9,32.1,93.5,32L93.5,32z"/>
		<path class="st4" d="M94.6,52.4c4.1-2.1,7.3-5.7,9-10.2c0.2-0.4,0.8-0.1,0.6,0.3c-1.8,4.7-5.1,8.5-9.4,10.6
			C94.4,53.3,94.2,52.6,94.6,52.4z"/>
		<path class="st4" d="M102.1,12.3c0.8,0.5,1.6,0.8,2.5,0.8c0.9,0,1.7-0.1,2.5-0.5c0.4-0.2,0.7,0.5,0.3,0.7
			c-0.9,0.4-1.8,0.7-2.8,0.6c-1,0-1.9-0.3-2.7-0.9c-0.1,0-0.1-0.1-0.2-0.2c0-0.1,0-0.2,0-0.3c0-0.1,0.1-0.2,0.2-0.2
			C102,12.3,102.1,12.3,102.1,12.3z"/>
		<path class="st3" d="M195.9,56.3c-6.5-15.4-6.3-34.9,3.8-47.9c3.4,18,12.6,34.2,26.1,45.6c5.2,4.4,11.4,8.7,12.8,15.6
			c0.9,4.3-0.4,8.9-2.5,12.6c-2.2,3.8-5.2,6.8-8.2,9.9l-0.3,1C214.6,83.6,202.4,71.7,195.9,56.3z"/>
		<path class="st4" d="M200,8.6c-2.3,13.6-0.6,28.1,5.1,40.6c1.2,2.7,2.7,5.3,4.6,7.5c1.9,2.1,4.3,3.6,7,4.4
			c2.5,0.8,5.1,1.2,7.3,2.6c2.4,1.5,3.8,3.9,4.4,6.8c0.7,3.5,0.2,7-0.4,10.4c-0.7,3.8-1.4,7.7-0.5,11.6c0.1,0.5-0.6,0.6-0.7,0.2
			c-1.7-6.7,1.6-13.2,1.1-19.9c-0.2-3.1-1.3-6.2-3.8-8c-2.2-1.6-4.9-2.1-7.4-2.8c-2.6-0.8-5-2-7-4c-2-2.1-3.6-4.6-4.9-7.3
			c-2.9-6-4.8-12.5-5.8-19.2c-1.2-7.6-1.1-15.4,0.2-23C199.4,7.9,200.1,8.1,200,8.6z"/>
		<path class="st4" d="M203,45.2c-2.1,0.7-4.4,0.6-6.4-0.3s-3.7-2.6-4.7-4.7c-0.2-0.4,0.4-0.8,0.6-0.4c0.9,2,2.5,3.5,4.4,4.4
			c1.9,0.8,4,0.9,6,0.2C203.3,44.4,203.5,45.1,203,45.2L203,45.2z"/>
		<path class="st4" d="M215.4,60.8c2.1-4.3,2.6-9.3,1.5-13.9c-0.1-0.5,0.6-0.6,0.7-0.2c1.2,4.9,0.7,10.1-1.5,14.5
			C215.8,61.7,215.2,61.3,215.4,60.8z"/>
		<path class="st4" d="M198.9,24c0.9-0.1,1.7-0.4,2.4-1c0.7-0.5,1.3-1.2,1.7-2.1c0.2-0.4,0.8,0,0.6,0.4c-0.4,0.9-1.1,1.7-1.9,2.3
			c-0.8,0.6-1.7,1-2.7,1.1c-0.1,0-0.2,0-0.3-0.1c-0.1-0.1-0.1-0.1-0.2-0.2c0-0.1,0-0.2,0-0.3C198.7,24.1,198.8,24,198.9,24z"/>
		<path class="st3" d="M253.2,8.5c-0.1,0.3-0.2,0.5-0.4,0.8c-1.6,3.6-2.9,7.4-4,11.3c-0.1,0.3-0.2,0.6-0.2,0.9
			c-2.4,9.4-3.2,19.1-2.2,28.8c0.4,3.8,1,7.7,1.9,11.4c1.3,5.2,3,10.7,2.6,15.8c0,0.5-0.1,1.1-0.2,1.6l-22,14.4c-0.1,0-0.1,0-0.2,0
			l-0.9,0.6c-0.1-0.2-0.1-0.4-0.2-0.6c0-0.1-0.1-0.2-0.1-0.3c0-0.1,0-0.1-0.1-0.2c0,0,0,0,0-0.1c0-0.1,0-0.1-0.1-0.2
			c-0.3-1.1-0.6-2.2-1-3.3c0,0,0,0,0,0c-2.4-8.5-4.1-17.3-4.5-26.1c0-0.3,0-0.5,0-0.8c-0.2-4,0-7.9,0.4-11.9c0.2-2.2,0.6-4.3,1-6.4
			c1.2-5.5,3.1-10.7,5.8-15.5c5.3-9.6,13.5-17.3,23.5-20.1C252.7,8.7,253,8.6,253.2,8.5z"/>
		<path class="st4" d="M253.4,8.9c-9.5,9.4-16.3,22.1-18.8,35.7c-0.5,2.9-0.9,6-0.5,9c0.4,2.9,1.4,5.7,3.1,8
			c1.5,2.2,3.3,4.3,4.3,6.8c1.1,2.7,0.8,5.6-0.3,8.2c-1.4,3.2-3.8,5.7-6.2,8c-2.7,2.6-5.5,5.3-6.9,8.9c-0.2,0.4-0.8,0.1-0.6-0.3
			c2.4-6.4,8.7-9.5,12.1-15.2c1.6-2.6,2.4-5.8,1.5-8.8c-0.9-2.7-2.7-4.8-4.3-7c-1.6-2.3-2.8-4.8-3.3-7.7c-0.5-3-0.3-6,0.2-9
			c1.1-6.7,3.2-13.1,6.2-19.1c3.4-6.8,7.8-13,13.1-18.2C253.3,7.9,253.7,8.5,253.4,8.9L253.4,8.9z"/>
		<path class="st4" d="M235.1,40.1c-2.1-0.8-3.9-2.3-5-4.4c-1.1-2-1.5-4.4-1.1-6.8c0.1-0.5,0.8-0.4,0.7,0.1c-0.4,2.2,0,4.4,1.1,6.3
			s2.7,3.3,4.6,4.1C235.9,39.6,235.6,40.2,235.1,40.1z"/>
		<path class="st4" d="M236.2,60.5c4.1-2.1,7.3-5.7,9-10.2c0.2-0.4,0.8-0.1,0.6,0.3c-1.8,4.7-5.1,8.5-9.4,10.6
			C236.1,61.4,235.8,60.7,236.2,60.5z"/>
		<path class="st4" d="M243.8,20.4c0.8,0.5,1.6,0.8,2.5,0.8c0.9,0,1.7-0.1,2.5-0.5c0.4-0.2,0.7,0.5,0.3,0.7
			c-0.9,0.4-1.8,0.7-2.8,0.6c-1,0-1.9-0.3-2.7-0.9c-0.1,0-0.1-0.1-0.2-0.2c0-0.1,0-0.2,0-0.3c0-0.1,0.1-0.2,0.2-0.2
			C243.6,20.4,243.7,20.4,243.8,20.4z"/>
		<path class="st5" d="M64.2,157.6h167.5V53.8c0-0.8-0.3-1.5-0.8-2.1c-0.5-0.5-1.2-0.9-1.9-0.9H67c-0.7,0-1.4,0.3-1.9,0.9
			c-0.5,0.5-0.8,1.3-0.8,2.1V157.6z"/>
		<path class="st4" d="M226.6,54.9H69.4v95.5h157.2V54.9z"/>
		<path class="st2" d="M64.1,154.8v12.8c0,0.5,0.1,1.1,0.3,1.5c0.2,0.5,0.5,0.9,0.8,1.3s0.8,0.7,1.2,0.9c0.5,0.2,0.9,0.3,1.4,0.3
			h61.8v25.3h-0.8c-0.1,0-0.1,0-0.2,0c-0.1,0-0.1,0.1-0.2,0.1c0,0-0.1,0.1-0.1,0.2c0,0.1,0,0.1,0,0.2v1.8c0,0.1,0,0.1,0,0.2
			c0,0.1,0.1,0.1,0.1,0.2c0,0,0.1,0.1,0.2,0.1c0.1,0,0.1,0,0.2,0h38.4c0.1,0,0.1,0,0.2,0c0.1,0,0.1-0.1,0.2-0.1c0,0,0.1-0.1,0.1-0.2
			c0-0.1,0-0.1,0-0.2v-1.8c0-0.1,0-0.1,0-0.2c0-0.1-0.1-0.1-0.1-0.2c0,0-0.1-0.1-0.2-0.1c-0.1,0-0.1,0-0.2,0h-0.8v-25.3h61.8
			c0.5,0,1-0.1,1.4-0.3c0.5-0.2,0.9-0.5,1.2-0.9s0.6-0.8,0.8-1.3c0.2-0.5,0.3-1,0.3-1.5v-12.8H64.1z"/>
		<path class="st6" d="M118.3,102.2H80c-0.3,0-0.5-0.1-0.7-0.3c-0.2-0.2-0.3-0.5-0.3-0.8V84.5c0-0.3,0.1-0.6,0.3-0.8
			c0.2-0.2,0.4-0.3,0.7-0.3h38.3c0.3,0,0.5,0.1,0.7,0.3c0.2,0.2,0.3,0.5,0.3,0.8v16.6c0,0.3-0.1,0.6-0.3,0.8
			C118.8,102,118.5,102.2,118.3,102.2z"/>
		<path class="st7" d="M114.6,110.1h-31c-0.3,0-0.6-0.1-0.9-0.4c-0.2-0.2-0.4-0.6-0.4-0.9c0-0.3,0.1-0.7,0.4-0.9
			c0.2-0.2,0.5-0.4,0.9-0.4h31C116.2,107.5,116.2,110.2,114.6,110.1z"/>
		<path class="st7" d="M114.6,116.1h-31c-0.3,0-0.6-0.1-0.9-0.4c-0.2-0.2-0.4-0.6-0.4-0.9s0.1-0.7,0.4-0.9c0.2-0.2,0.5-0.4,0.9-0.4
			h31C116.2,113.4,116.2,116.1,114.6,116.1z"/>
		<path class="st7" d="M114.6,122h-31c-0.3,0-0.6-0.1-0.9-0.4c-0.2-0.2-0.4-0.6-0.4-0.9c0-0.3,0.1-0.7,0.4-0.9
			c0.2-0.2,0.5-0.4,0.9-0.4h31C116.2,119.4,116.2,122,114.6,122z"/>
		<path class="st6" d="M167.1,102.2h-38.3c-0.3,0-0.5-0.1-0.7-0.3c-0.2-0.2-0.3-0.5-0.3-0.8V84.5c0-0.3,0.1-0.6,0.3-0.8
			c0.2-0.2,0.4-0.3,0.7-0.3h38.3c0.3,0,0.5,0.1,0.7,0.3c0.2,0.2,0.3,0.5,0.3,0.8v16.6c0,0.3-0.1,0.6-0.3,0.8
			C167.7,102,167.4,102.2,167.1,102.2z"/>
		<path class="st7" d="M163.5,110.1h-31c-0.3,0-0.6-0.1-0.9-0.4c-0.2-0.2-0.4-0.6-0.4-0.9c0-0.3,0.1-0.7,0.4-0.9
			c0.2-0.2,0.5-0.4,0.9-0.4h31C165,107.5,165.1,110.2,163.5,110.1z"/>
		<path class="st7" d="M163.5,116.1h-31c-0.3,0-0.6-0.1-0.9-0.4c-0.2-0.2-0.4-0.6-0.4-0.9s0.1-0.7,0.4-0.9c0.2-0.2,0.5-0.4,0.9-0.4
			h31C165,113.4,165.1,116.1,163.5,116.1z"/>
		<path class="st7" d="M163.5,122h-31c-0.3,0-0.6-0.1-0.9-0.4c-0.2-0.2-0.4-0.6-0.4-0.9c0-0.3,0.1-0.7,0.4-0.9
			c0.2-0.2,0.5-0.4,0.9-0.4h31C165,119.4,165.1,122,163.5,122z"/>
		<path class="st6" d="M216,102.2h-38.3c-0.3,0-0.5-0.1-0.7-0.3c-0.2-0.2-0.3-0.5-0.3-0.8V84.5c0-0.3,0.1-0.6,0.3-0.8
			c0.2-0.2,0.4-0.3,0.7-0.3H216c0.3,0,0.5,0.1,0.7,0.3c0.2,0.2,0.3,0.5,0.3,0.8v16.6c0,0.3-0.1,0.6-0.3,0.8
			C216.5,102,216.3,102.2,216,102.2z"/>
		<path class="st7" d="M212.3,110.1h-31c-0.3,0-0.6-0.1-0.9-0.4c-0.2-0.2-0.4-0.6-0.4-0.9c0-0.3,0.1-0.7,0.4-0.9
			c0.2-0.2,0.5-0.4,0.9-0.4h31C213.9,107.5,213.9,110.2,212.3,110.1z"/>
		<path class="st7" d="M212.3,116.1h-31c-0.3,0-0.6-0.1-0.9-0.4c-0.2-0.2-0.4-0.6-0.4-0.9c0-0.3,0.1-0.7,0.4-0.9
			c0.2-0.2,0.5-0.4,0.9-0.4h31C213.9,113.4,213.9,116.1,212.3,116.1z"/>
		<path class="st7" d="M212.3,122h-31c-0.3,0-0.6-0.1-0.9-0.4c-0.2-0.2-0.4-0.6-0.4-0.9c0-0.3,0.1-0.7,0.4-0.9
			c0.2-0.2,0.5-0.4,0.9-0.4h31C213.9,119.4,213.9,122,212.3,122z"/>
		<path class="st2" d="M271.2,83.6l0.1,20.8l0.4,0l0.4,7.7l-0.8,0l0,4.6l0.6,0l0.1,7.7l-0.7,0l0.3,68c0,1.8-0.6,3.5-1.8,4.8
			c-1.2,1.3-2.8,2-4.4,2l-70.2,0.4c-1.7,0-3.3-0.7-4.4-1.9c-1.2-1.3-1.9-3-1.9-4.7l-0.6-108.9c0-1.8,0.6-3.5,1.8-4.8
			c1.2-1.3,2.8-2,4.4-2l70.2-0.4c1.7,0,3.3,0.7,4.4,1.9C270.5,80.1,271.1,81.8,271.2,83.6z"/>
		<path class="st4" d="M265.6,195l-70.5,0.4c-0.5,0-1-0.2-1.4-0.6c-0.4-0.4-0.6-0.9-0.6-1.5l-0.6-109.7c0-0.5,0.2-1.1,0.6-1.5
			c0.4-0.4,0.9-0.6,1.4-0.6l70.5-0.4c0.5,0,1,0.2,1.4,0.6c0.4,0.4,0.6,0.9,0.6,1.5l0.6,109.7c0,0.5-0.2,1.1-0.6,1.5
			C266.6,194.8,266.1,195,265.6,195z"/>
		<path class="st4" d="M229.5,79.8c0.3,0,0.5-0.3,0.5-0.6c0-0.3-0.2-0.6-0.5-0.6c-0.3,0-0.5,0.3-0.5,0.6
			C228.9,79.5,229.2,79.8,229.5,79.8z"/>
		<path class="st6" d="M250.4,112.1h-40.8c-0.3,0-0.6-0.1-0.8-0.3c-0.2-0.2-0.3-0.5-0.3-0.8V93.2c0-0.3,0.1-0.6,0.3-0.8
			c0.2-0.2,0.5-0.3,0.8-0.3h40.8c0.3,0,0.6,0.1,0.8,0.3c0.2,0.2,0.3,0.5,0.3,0.8v17.7c0,0.3-0.1,0.6-0.3,0.8
			C251,111.9,250.7,112.1,250.4,112.1z"/>
		<path class="st7" d="M246.6,120.6h-33c-0.3,0-0.7-0.1-0.9-0.4c-0.2-0.3-0.4-0.6-0.4-1c0-0.4,0.1-0.7,0.4-1
			c0.2-0.3,0.6-0.4,0.9-0.4h33C248.2,117.8,248.2,120.6,246.6,120.6z"/>
		<path class="st7" d="M246.6,126.9h-33c-0.3,0-0.7-0.1-0.9-0.4c-0.2-0.3-0.4-0.6-0.4-1c0-0.4,0.1-0.7,0.4-1
			c0.2-0.3,0.6-0.4,0.9-0.4h33C248.2,124.1,248.2,126.9,246.6,126.9z"/>
		<path class="st7" d="M246.6,133.2h-33c-0.3,0-0.7-0.1-0.9-0.4c-0.2-0.3-0.4-0.6-0.4-1s0.1-0.7,0.4-1c0.2-0.3,0.6-0.4,0.9-0.4h33
			C248.2,130.4,248.2,133.2,246.6,133.2z"/>
		<path class="st6" d="M250.4,163.4h-40.8c-0.3,0-0.6-0.1-0.8-0.3c-0.2-0.2-0.3-0.5-0.3-0.8v-17.7c0-0.3,0.1-0.6,0.3-0.8
			c0.2-0.2,0.5-0.3,0.8-0.3h40.8c0.3,0,0.6,0.1,0.8,0.3c0.2,0.2,0.3,0.5,0.3,0.8v17.7c0,0.3-0.1,0.6-0.3,0.8
			C251,163.3,250.7,163.4,250.4,163.4z"/>
		<path class="st7" d="M246.6,171.9h-33c-0.3,0-0.7-0.1-0.9-0.4c-0.2-0.3-0.4-0.6-0.4-1c0-0.4,0.1-0.7,0.4-1
			c0.2-0.3,0.6-0.4,0.9-0.4h33C248.2,169.2,248.2,172,246.6,171.9z"/>
		<path class="st7" d="M246.6,178.2h-33c-0.3,0-0.7-0.1-0.9-0.4c-0.2-0.3-0.4-0.6-0.4-1c0-0.4,0.1-0.7,0.4-1
			c0.2-0.3,0.6-0.4,0.9-0.4h33C248.2,175.5,248.2,178.3,246.6,178.2z"/>
		<path class="st7" d="M246.6,184.6h-33c-0.3,0-0.7-0.1-0.9-0.4s-0.4-0.6-0.4-1c0-0.4,0.1-0.7,0.4-1s0.6-0.4,0.9-0.4h33
			C248.2,181.8,248.2,184.6,246.6,184.6z"/>
		<path class="st2" d="M79.5,194.4l-0.1-60.1l0.5,0l0-11l-0.5,0l0-18.4c0-0.7-0.1-1.4-0.4-2c-0.2-0.6-0.6-1.2-1.1-1.7
			c-0.5-0.5-1-0.9-1.6-1.1c-0.6-0.3-1.2-0.4-1.9-0.4l-36.5,0.1c-0.6,0-1.3,0.1-1.9,0.4c-0.6,0.3-1.1,0.7-1.6,1.1
			c-0.5,0.5-0.8,1.1-1.1,1.7s-0.4,1.3-0.4,2l0,12.9l-0.8,0l0.2,7.7l0.7,0l0,1.7l-0.7,0l0.2,7.7l0.5,0l0.1,59.5c0,0.7,0.1,1.4,0.4,2
			c0.2,0.6,0.6,1.2,1.1,1.7c0.5,0.5,1,0.9,1.6,1.1c0.6,0.3,1.2,0.4,1.9,0.4l36.5-0.1c1.3,0,2.5-0.6,3.5-1.5
			C79,197.1,79.5,195.7,79.5,194.4z"/>
		<path class="st4" d="M37.1,197.3c-0.5-0.2-0.8-0.5-1.1-0.9c-0.3-0.4-0.4-0.9-0.4-1.4l-0.2-90.5c0-0.7,0.2-1.3,0.7-1.8
			c0.4-0.5,1-0.7,1.7-0.7l7.8,0l-0.1,0.3c-0.2,0.4-0.2,0.9-0.2,1.4c0,0.5,0.2,0.9,0.4,1.3c0.2,0.4,0.6,0.7,1,0.9
			c0.4,0.2,0.8,0.3,1.3,0.3l17.2,0c0.4,0,0.8-0.2,1.2-0.4c0.4-0.2,0.7-0.6,0.9-1c0.2-0.4,0.4-0.8,0.4-1.3c0-0.5,0-0.9-0.2-1.3
			l-0.1-0.3l8,0c0.6,0,1.2,0.3,1.7,0.7c0.4,0.5,0.7,1.1,0.7,1.8l0.2,86.3c0,1.8-0.7,3.5-1.8,4.7c-1.2,1.3-2.7,2-4.4,2l-33.7,0.1
			C37.6,197.4,37.3,197.4,37.1,197.3z"/>
		<path class="st4" d="M50.3,104.1c0.3,0,0.5-0.3,0.5-0.6c0-0.3-0.2-0.6-0.5-0.6c-0.3,0-0.5,0.3-0.5,0.6
			C49.8,103.8,50,104.1,50.3,104.1z"/>
		<path class="st6" d="M71,131.9H43.3c-0.2,0-0.4-0.1-0.5-0.2c-0.1-0.1-0.2-0.3-0.2-0.6v-12c0-0.2,0.1-0.4,0.2-0.6
			c0.1-0.1,0.3-0.2,0.5-0.2H71c0.2,0,0.4,0.1,0.5,0.2c0.1,0.1,0.2,0.3,0.2,0.6v12c0,0.2-0.1,0.4-0.2,0.6
			C71.4,131.8,71.2,131.9,71,131.9z"/>
		<path class="st7" d="M68.3,137.6H45.9c-0.1,0-0.2,0-0.3-0.1c-0.1,0-0.2-0.1-0.3-0.2c-0.1-0.1-0.1-0.2-0.2-0.3
			c0-0.1-0.1-0.2-0.1-0.4s0-0.2,0.1-0.4c0-0.1,0.1-0.2,0.2-0.3c0.1-0.1,0.2-0.2,0.3-0.2c0.1,0,0.2-0.1,0.3-0.1h22.4
			C69.5,135.7,69.5,137.7,68.3,137.6z"/>
		<path class="st7" d="M68.3,141.9H45.9c-0.2,0-0.5-0.1-0.6-0.3c-0.2-0.2-0.3-0.4-0.3-0.7c0-0.2,0.1-0.5,0.3-0.7
			c0.2-0.2,0.4-0.3,0.6-0.3h22.4C69.5,140,69.5,141.9,68.3,141.9z"/>
		<path class="st7" d="M68.3,146.2H45.9c-0.1,0-0.2,0-0.3-0.1c-0.1,0-0.2-0.1-0.3-0.2c-0.1-0.1-0.1-0.2-0.2-0.3
			c0-0.1-0.1-0.2-0.1-0.4s0-0.2,0.1-0.4c0-0.1,0.1-0.2,0.2-0.3c0.1-0.1,0.2-0.2,0.3-0.2c0.1,0,0.2-0.1,0.3-0.1h22.4
			C69.5,144.3,69.5,146.2,68.3,146.2z"/>
		<path class="st6" d="M71,167.9H43.3c-0.2,0-0.4-0.1-0.5-0.2c-0.1-0.1-0.2-0.3-0.2-0.6v-12c0-0.2,0.1-0.4,0.2-0.6
			c0.1-0.1,0.3-0.2,0.5-0.2H71c0.2,0,0.4,0.1,0.5,0.2c0.1,0.1,0.2,0.3,0.2,0.6v12c0,0.2-0.1,0.4-0.2,0.6
			C71.4,167.8,71.2,167.9,71,167.9z"/>
		<path class="st7" d="M68.3,173.7H45.9c-0.1,0-0.2,0-0.3-0.1c-0.1,0-0.2-0.1-0.3-0.2c-0.1-0.1-0.1-0.2-0.2-0.3
			c0-0.1-0.1-0.2-0.1-0.4c0-0.1,0-0.2,0.1-0.4c0-0.1,0.1-0.2,0.2-0.3c0.1-0.1,0.2-0.2,0.3-0.2c0.1,0,0.2-0.1,0.3-0.1h22.4
			C69.5,171.8,69.5,173.7,68.3,173.7z"/>
		<path class="st7" d="M68.3,178H45.9c-0.2,0-0.5-0.1-0.6-0.3c-0.2-0.2-0.3-0.4-0.3-0.7c0-0.2,0.1-0.5,0.3-0.7
			c0.2-0.2,0.4-0.3,0.6-0.3h22.4C69.5,176.1,69.5,178,68.3,178z"/>
		<path class="st7" d="M68.3,182.3H45.9c-0.1,0-0.2,0-0.3-0.1c-0.1,0-0.2-0.1-0.3-0.2c-0.1-0.1-0.1-0.2-0.2-0.3
			c0-0.1-0.1-0.2-0.1-0.4s0-0.2,0.1-0.4c0-0.1,0.1-0.2,0.2-0.3c0.1-0.1,0.2-0.2,0.3-0.2c0.1,0,0.2-0.1,0.3-0.1h22.4
			C69.5,180.4,69.5,182.3,68.3,182.3z"/>
		<path class="st1" d="M9,196.4l3,0l1.4-12.4H9L9,196.4z"/>
		<path class="st8" d="M8.3,195.4h0.8l3.3-1.4l1.8,1.4h0c1,0,2,0.4,2.7,1.2c0.7,0.8,1.1,1.8,1.1,2.9v0.1H8.3L8.3,195.4z"/>
		<path class="st1" d="M20.7,194.4l2.9,0.7l4-11.8l-4.3-1L20.7,194.4z"/>
		<path class="st8" d="M20.2,193.2l0.8,0.2l3.5-0.6l1.4,1.8h0c1,0.2,1.8,0.9,2.4,1.8s0.7,2,0.5,3.1l0,0.1l-9.5-2.3L20.2,193.2z"/>
		<path class="st8" d="M5.2,120.4c-1.4,4.6-1.3,9.5,0.3,14.8l0.7,29.9c0,0-1,19.6,2.3,26.5h4.8l2.4-28.3l0.3-19l10.2,16l-6.5,30.8
			l5.9,0.6l10.6-33.4l-13.1-32.4L5.2,120.4z"/>
		<path class="st2" d="M23.9,126.9l-17.4-3c-0.5-0.2-0.9-0.4-1.2-0.8c-0.4-0.3-0.6-0.8-0.8-1.2c-0.2-0.5-0.3-1-0.3-1.5
			c0-0.5,0.1-1,0.3-1.5l0.8-1.7L5.1,99.5c0-2.3,0.5-4.6,1.5-6.6c1-2,2.6-3.7,4.4-4.9l1.7-1.1l0.9-2.3l7.9,0.2l0,3l2.8,4.8l0,0
			L24.1,119l-0.8,2.7l1.2,3.1L23.9,126.9z"/>
		<path class="st9" d="M18.3,81.8c4,0,7.2-3.4,7.2-7.7s-3.2-7.7-7.2-7.7c-4,0-7.2,3.4-7.2,7.7S14.3,81.8,18.3,81.8z"/>
		<path class="st8" d="M10.8,75.8c-0.2-1-0.1-2.3,0-3.3c0.2-1.3,0.6-2.5,1.2-3.6c0.6-1.1,1.5-2.1,2.5-2.8c0.4-0.3,0.8-0.5,1.3-0.6
			c0.2,0,0.5,0,0.7,0.2c0.2,0.1,0.4,0.3,0.5,0.6c0.1-0.3,0.3-0.6,0.5-0.9c0.2-0.2,0.5-0.4,0.8-0.6c0.6-0.2,1.2-0.3,1.9-0.3
			c1.2,0.1,2.4,0.6,3.4,1.4c1,0.8,1.8,1.8,2.3,3.1c0.2,0.5,0.7-1.3,1-0.9c0.2,0.5,0.6,0.8,1.1,1c0.5,0.1,0.7,2.2,0.9,1.7
			c0.1,0.4,0.2,0.8,0.2,1.1c0,0.4-0.2,0.8-0.4,1.1c-0.2,0.3-0.5,0.6-0.8,0.8c-0.3,0.2-0.7,0.3-1.1,0.2c-0.5-0.1-1-0.2-1.4-0.3
			c-0.9-0.1-1.7,0.1-2.4,0.6c-0.7,0.5-1.2,1.3-1.4,2.2c-0.1-0.5-0.3-1-0.6-1.5c-0.1-0.2-0.3-0.4-0.6-0.5c-0.2-0.1-0.5-0.2-0.7-0.2
			c-0.2,0-0.5,0.1-0.7,0.2c-0.2,0.1-0.4,0.3-0.5,0.5c-0.3,0.4-0.6,0.9-0.9,1.3c-0.9,1.2-2.2,3.9-3.5,3.7
			C12.8,80,11.1,77.1,10.8,75.8z"/>
		<path class="st1" d="M45,121.3c-0.3,0.1-0.6,0.2-1,0.2c-0.3,0-0.7-0.1-1-0.3c-0.3-0.2-0.6-0.4-0.8-0.7s-0.4-0.6-0.4-1l-8-0.9
			l2.7-3.5l7.2,1.4c0.6-0.1,1.1,0,1.6,0.3c0.5,0.3,0.8,0.8,1,1.4c0.2,0.6,0.1,1.2-0.1,1.7C45.9,120.6,45.5,121,45,121.3z"/>
		<path class="st2" d="M40,119.9L21.3,118l0,0L7.5,101.2c-0.9-1.5-1.2-3.3-0.9-5c0.3-1.7,1.2-3.3,2.5-4.3c0.7-0.6,1.6-1,2.5-1.2
			c0.9-0.2,1.8-0.2,2.7,0c0.9,0.2,1.7,0.6,2.5,1.2c0.7,0.6,1.4,1.3,1.8,2.2l8.4,15.9l13.3,5.7L40,119.9z"/>
		<path class="st10" d="M289.5,200H0.4c-0.1,0-0.2-0.1-0.3-0.1C0,199.8,0,199.6,0,199.5c0-0.1,0-0.3,0.1-0.4
			c0.1-0.1,0.2-0.1,0.3-0.1h289.1c0.1,0,0.2,0.1,0.3,0.1c0.1,0.1,0.1,0.2,0.1,0.4c0,0.1,0,0.3-0.1,0.4
			C289.7,199.9,289.6,200,289.5,200z"/>
	</g>
</g>
</svg>
