<?xml version="1.0" encoding="utf-8"?>
<!-- Generator: Adobe Illustrator 26.4.1, SVG Export Plug-In . SVG Version: 6.00 Build 0)  -->
<svg version="1.1" id="Слой_1" xmlns="http://www.w3.org/2000/svg" xmlns:xlink="http://www.w3.org/1999/xlink" x="0px" y="0px"
	 viewBox="0 0 262 200" style="enable-background:new 0 0 262 200;" xml:space="preserve">
<style type="text/css">
	.st0{clip-path:url(#SVGID_00000018940542183725926990000004861832922535042238_);}
	.st1{fill:#F2F2F2;}
	.st2{fill:#E6E6E6;}
	.st3{fill:#834D9B;}
	.st4{fill:#3F3D56;}
	.st5{fill:#FFB6B6;}
	.st6{fill:#2F2E41;}
</style>
<g>
	<defs>
		<rect id="SVGID_1_" width="262" height="200"/>
	</defs>
	<clipPath id="SVGID_00000178164133837308842200000015305557859850042813_">
		<use xlink:href="#SVGID_1_"  style="overflow:visible;"/>
	</clipPath>
	<g style="clip-path:url(#SVGID_00000178164133837308842200000015305557859850042813_);">
		<path class="st1" d="M262,107.4v84c0,2.3-0.9,4.5-2.5,6.1c-1.6,1.6-3.8,2.5-6.1,2.5h-64.3l0.6-0.8l71.5-90.9L262,107.4z"/>
		<path class="st2" d="M102.4,77.8H28.5c-0.6,0-1.2,0.2-1.6,0.7c-0.4,0.4-0.7,1-0.7,1.6c0,0.6,0.2,1.2,0.7,1.6
			c0.4,0.4,1,0.7,1.6,0.7h73.9c0.6,0,1.2-0.2,1.6-0.7c0.4-0.4,0.7-1,0.7-1.6c0-0.6-0.2-1.2-0.7-1.6C103.6,78,103,77.8,102.4,77.8z"
			/>
		<path class="st2" d="M51.4,65H28.5c-0.6,0-1.2,0.2-1.6,0.7c-0.4,0.4-0.7,1-0.7,1.6s0.2,1.2,0.7,1.6c0.4,0.4,1,0.7,1.6,0.7h22.9
			c0.6,0,1.2-0.2,1.6-0.7c0.4-0.4,0.7-1,0.7-1.6s-0.2-1.2-0.7-1.6C52.6,65.2,52,65,51.4,65L51.4,65z"/>
		<path class="st2" d="M253.4,0H8.6C6.3,0,4.1,0.9,2.5,2.5C0.9,4.1,0,6.3,0,8.6v182.8c0,2.3,0.9,4.5,2.5,6.1
			c1.6,1.6,3.8,2.5,6.1,2.5h244.8c2.3,0,4.5-0.9,6.1-2.5c1.6-1.6,2.5-3.8,2.5-6.1V8.6c0-2.3-0.9-4.5-2.5-6.1
			C257.9,0.9,255.7,0,253.4,0z M261.2,191.4c0,1-0.2,2-0.6,3c-0.4,1-1,1.8-1.7,2.5c-0.7,0.7-1.6,1.3-2.5,1.7s-2,0.6-3,0.6H8.6
			c-2.1,0-4.1-0.8-5.5-2.3c-1.5-1.5-2.3-3.5-2.3-5.5V59.7C0.8,44.1,7,29.1,18,18C29,7,44,0.8,59.6,0.8h193.8c1,0,2,0.2,3,0.6
			s1.8,1,2.5,1.7c0.7,0.7,1.3,1.6,1.7,2.5c0.4,1,0.6,2,0.6,3V191.4z"/>
		<path class="st2" d="M238.1,33.1H23.9c-0.1,0-0.2,0-0.3-0.1c-0.1-0.1-0.1-0.2-0.1-0.3c0-0.1,0-0.2,0.1-0.3
			c0.1-0.1,0.2-0.1,0.3-0.1h214.3c0.1,0,0.2,0,0.3,0.1c0.1,0.1,0.1,0.2,0.1,0.3c0,0.1,0,0.2-0.1,0.3C238.3,33,238.2,33.1,238.1,33.1
			z"/>
		<path class="st2" d="M34.6,21.7c1.8,0,3.2-1.5,3.2-3.3c0-1.8-1.4-3.3-3.2-3.3c-1.8,0-3.2,1.5-3.2,3.3
			C31.4,20.2,32.8,21.7,34.6,21.7z"/>
		<path class="st2" d="M45.6,21.7c1.8,0,3.2-1.5,3.2-3.3c0-1.8-1.4-3.3-3.2-3.3c-1.8,0-3.2,1.5-3.2,3.3
			C42.4,20.2,43.9,21.7,45.6,21.7z"/>
		<path class="st2" d="M56.7,21.7c1.8,0,3.2-1.5,3.2-3.3c0-1.8-1.4-3.3-3.2-3.3c-1.8,0-3.2,1.5-3.2,3.3
			C53.5,20.2,54.9,21.7,56.7,21.7z"/>
		<path class="st2" d="M69.3,21c-0.1,0-0.1,0-0.1,0c0,0-0.1,0-0.1-0.1l-2.2-2.2c-0.1-0.1-0.1-0.2-0.1-0.3c0-0.1,0-0.2,0.1-0.3
			l2.2-2.2c0,0,0.1-0.1,0.1-0.1c0,0,0.1,0,0.1,0c0,0,0.1,0,0.1,0c0,0,0.1,0,0.1,0.1c0,0,0.1,0.1,0.1,0.1c0,0,0,0.1,0,0.1
			c0,0,0,0.1,0,0.1c0,0,0,0.1-0.1,0.1l-1.9,1.9l1.9,1.9c0.1,0.1,0.1,0.1,0.1,0.2c0,0.1,0,0.1,0,0.2c0,0.1-0.1,0.1-0.1,0.2
			C69.4,21,69.4,21,69.3,21z"/>
		<path class="st2" d="M72.9,21c-0.1,0-0.1,0-0.2-0.1c-0.1,0-0.1-0.1-0.1-0.2c0-0.1,0-0.1,0-0.2c0-0.1,0-0.1,0.1-0.2l1.9-1.9
			l-1.9-1.9c-0.1-0.1-0.1-0.2-0.1-0.3c0-0.1,0-0.2,0.1-0.3c0.1-0.1,0.2-0.1,0.3-0.1c0.1,0,0.2,0,0.3,0.1l2.2,2.2
			c0.1,0.1,0.1,0.2,0.1,0.3c0,0.1,0,0.2-0.1,0.3l-2.2,2.2c0,0-0.1,0.1-0.1,0.1C73,21,73,21,72.9,21z"/>
		<path class="st2" d="M219,15.5h-4c-0.1,0-0.2,0-0.3,0.1c-0.1,0-0.2,0.1-0.3,0.2c-0.1,0.1-0.1,0.2-0.2,0.3c0,0.1-0.1,0.2-0.1,0.3v4
			c0,0.1,0,0.2,0.1,0.3c0,0.1,0.1,0.2,0.2,0.3c0.1,0.1,0.2,0.1,0.3,0.2c0.1,0,0.2,0.1,0.3,0.1h4c0.2,0,0.4-0.1,0.6-0.2
			c0.2-0.2,0.2-0.4,0.2-0.6v-4c0-0.2-0.1-0.4-0.2-0.6C219.5,15.6,219.3,15.5,219,15.5z"/>
		<path class="st2" d="M209.2,15.5h-4c-0.1,0-0.2,0-0.3,0.1c-0.1,0-0.2,0.1-0.3,0.2c-0.1,0.1-0.1,0.2-0.2,0.3c0,0.1-0.1,0.2-0.1,0.3
			v4c0,0.1,0,0.2,0.1,0.3c0,0.1,0.1,0.2,0.2,0.3c0.1,0.1,0.2,0.1,0.3,0.2c0.1,0,0.2,0.1,0.3,0.1h4c0.2,0,0.4-0.1,0.6-0.2
			s0.2-0.4,0.2-0.6v-4c0-0.2-0.1-0.4-0.2-0.6C209.6,15.6,209.4,15.5,209.2,15.5z"/>
		<path class="st2" d="M228.3,15.7h-4c-0.1,0-0.2,0-0.3,0.1c-0.1,0-0.2,0.1-0.3,0.2c-0.1,0.1-0.1,0.2-0.2,0.3c0,0.1-0.1,0.2-0.1,0.3
			v4c0,0.1,0,0.2,0.1,0.3c0,0.1,0.1,0.2,0.2,0.3c0.1,0.1,0.2,0.1,0.3,0.2c0.1,0,0.2,0.1,0.3,0.1h4c0.2,0,0.4-0.1,0.6-0.2
			c0.2-0.2,0.2-0.4,0.2-0.6v-4c0-0.2-0.1-0.4-0.2-0.6C228.7,15.8,228.5,15.7,228.3,15.7z"/>
		<path class="st2" d="M147,17.2H115c-0.3,0-0.5,0.1-0.7,0.3c-0.2,0.2-0.3,0.4-0.3,0.7c0,0.3,0.1,0.5,0.3,0.7
			c0.2,0.2,0.4,0.3,0.7,0.3H147c0.3,0,0.5-0.1,0.7-0.3c0.2-0.2,0.3-0.4,0.3-0.7c0-0.3-0.1-0.5-0.3-0.7
			C147.6,17.3,147.3,17.2,147,17.2z"/>
		<path class="st3" d="M61.1,155.5l-19.2-0.6c-2.7-0.1-5.7-0.1-7.5,1.3c-2.2,1.6-1.8,4.3,0,6.1c1.8,1.8,4.6,2.8,7.4,3.7
			c14.9,4.4,31.4,5.3,47.3,4.3c16-1,31.7-3.8,47.2-6.7c1.5-0.3,3.2-0.7,3.8-1.7c0.6-1-0.2-2.2-1.4-2.8c-1.2-0.6-2.7-0.9-4.1-1.1
			c-26.3-3.5-52.8-4.2-79.2-2.3"/>
		<path class="st4" d="M95.5,140.7v-4.5c-3.3,0-15.1,0-18.1,0c-0.2,15.9-1.6,12.8,11.4,12.8c0.6,0,1.2,0.2,1.6,0.7
			c0.4,0.4,0.7,1,0.7,1.6v0.1c0,0.6-0.2,1.2-0.7,1.6c-0.4,0.4-1,0.7-1.6,0.7H77.4v4.5h18.1c0,0,0-4.4,0-4.5c0.8-13.2-0.8-8.4-11.8-9
			c-0.5,0-1-0.2-1.3-0.6c-0.3-0.4-0.5-0.8-0.5-1.3v-0.1c0-0.5,0.2-1,0.6-1.4c0.4-0.4,0.9-0.6,1.4-0.6H95.5z"/>
		<path class="st4" d="M117.9,140.7v-4.5c-3.3,0-15.1,0-18.1,0c-0.2,16-1.7,12.7,11.7,12.8c0.5,0,1,0.2,1.4,0.6
			c0.4,0.4,0.6,0.8,0.6,1.4c0,0.2,0,0.5,0,0.7c0,0.3-0.1,0.5-0.1,0.7c-0.1,0.2-0.2,0.4-0.4,0.6c-0.2,0.2-0.4,0.3-0.6,0.4
			s-0.5,0.1-0.7,0.1H99.7v4.5h18.1c0,0,0-4.4,0-4.5c0.8-13.2-0.8-8.4-11.8-9c-0.5,0-1-0.2-1.3-0.6c-0.3-0.4-0.5-0.8-0.5-1.3v-0.1
			c0-0.5,0.2-1,0.6-1.4s0.9-0.6,1.4-0.6H117.9z"/>
		<path class="st4" d="M72.1,140.7v-4.5H54c0,4.1,0,14.8,0,18.9c-3.6,6,16.7,1.9,18.1,3c0,0,0-4.5,0-4.5c-13.8-0.1-14.2,2.5-13.7-10
			c0-0.8,0.4-1.5,0.9-2c0.6-0.5,1.3-0.8,2.1-0.8C65.4,140.7,72.1,140.7,72.1,140.7z"/>
		<path class="st3" d="M108,101.2l-19.2-0.5c-2.7-0.1-5.7-0.1-7.5,1.1c-2.2,1.3-1.8,3.6,0,5.1c1.8,1.5,4.6,2.4,7.4,3
			c14.9,3.7,31.4,4.4,47.3,3.6c16-0.8,31.7-3.2,47.2-5.6c1.5-0.2,3.2-0.5,3.8-1.4c0.6-0.8-0.2-1.8-1.4-2.4c-1.2-0.5-2.7-0.7-4.1-0.9
			c-26.3-2.9-52.8-3.5-79.2-1.9"/>
		<path class="st4" d="M104.6,81.2c-0.3,7,2.3,9.2-6.6,8.3c-0.6-4.2,2.4-10-4.5-8.5c1.4,3-3.9,26.1,4.5,22c0.5-6.9-2.6-10,6.6-8.9
			c0.7,4.3-2.7,10.6,4.5,9.1C107.8,100.2,113.1,77.1,104.6,81.2z"/>
		<path class="st4" d="M151.1,81.2c0.6,0.4-5.7,7.1-5.8,7.6c-0.2-0.5-6.2-7-5.5-7.6c-8.4-4.2-3.2,19-4.5,22c0,0,4.5,0,4.5,0V88.8
			c6.4,8.6,5.2,7.2,11.3-0.4v14.8c8.4,4.2,3.2-19,4.5-22C155.7,81.2,151.1,81.2,151.1,81.2z"/>
		<path class="st4" d="M131.1,81.2h-18.1c-1.1,6.4,2.5,4.2,6.8,4.5l0,17.4h4.5V85.8C128.6,85.5,132.2,87.6,131.1,81.2z"/>
		<path class="st4" d="M164,98.7c-1-5.8-1-11.7,0-17.4h-4.5c0,2.9,0,14.5,0,19.8c0,0.6,0.2,1.1,0.6,1.5c0.4,0.4,1,0.6,1.5,0.6
			c4.6,0,13.3,0,16,0v-4.5H164z"/>
		<path class="st2" d="M48.1,99.4H29.6c-0.9,0-1.8,0.4-2.4,1c-0.6,0.6-1,1.5-1,2.4s0.4,1.8,1,2.4c0.6,0.6,1.5,1,2.4,1h18.4
			c0.9,0,1.8-0.4,2.4-1c0.6-0.6,1-1.5,1-2.4s-0.4-1.8-1-2.4C49.9,99.8,49,99.4,48.1,99.4L48.1,99.4z"/>
		<path class="st5" d="M215.3,196h-3.7l-1.8-14.5l5.5,0L215.3,196z"/>
		<path class="st6" d="M215.4,200l-11.5,0v-0.1c0-1.2,0.5-2.3,1.3-3.2c0.8-0.8,2-1.3,3.2-1.3l0,0l2.1-1.6l3.9,1.6h1V200z"/>
		<path class="st5" d="M228.5,196h-3.7l-1.8-14.5l5.5,0L228.5,196z"/>
		<path class="st6" d="M228.6,200l-11.5,0v-0.1c0-1.2,0.5-2.3,1.3-3.2c0.8-0.8,2-1.3,3.2-1.3h0l2.1-1.6l3.9,1.6h1V200z"/>
		<path class="st6" d="M205.9,117.2c0,0-3.6,11.1-2.9,12.5c0.7,1.5,1.8,0.3,0.7,1.5c-1.1,1.1-2.1-0.1-1.1,1.9
			c1.1,1.9,2.7,17.8,3.4,18.6c0.7,0.8,1.7,0.8,0.8,1.5c-0.9,0.7-2-0.8-0.9,0.7c1.1,1.5,4.1,36.5,4.1,36.5h5.9c0,0,1.5-1.7,0.6-2.8
			c-0.8-1.1,0.1-1.5,0-2.3c-0.1-0.7,0.2-2.3,0.3-3c0.1-0.7,1-17.9-1.3-27.9l4.4-18.9l2.2,22.9c0,0-2.4,19.2,0,25.4
			c0,0-2,1.6-1.1,2.6c0.9,0.9,1.6,0.2,0.9,0.9c-0.8,0.8,1.1,3.4,1.1,3.4l6.4-0.4l3.6-35.9c0,0,0.6-3.7,0-4.4
			c-0.6-0.6-0.6,1.6-0.6-0.6v-3c0,0,2.7-18.6,2.7-19.7c0-1.1-4.6-9.1-4.6-9.1L205.9,117.2z"/>
		<path class="st2" d="M225,72.4l-9.4-0.6l-2.8,4.4l-6.8,2.8v21.9c0.7,2.1,1.1,4.3,1.1,6.6c0,4.4-1.1,9.5-0.8,10.6
			c3.8,11,24.6,0,24.6,0l-0.4-11.7l0.5-26.5l-4.2-3.4L225,72.4z"/>
		<path class="st5" d="M205.6,122l-0.6-6.9l-4-0.2l0.9,7.3c-0.2,0.4-0.4,0.8-0.4,1.2c0,0.4,0.1,0.9,0.3,1.2c0.2,0.4,0.5,0.7,0.9,0.9
			c0.4,0.2,0.8,0.3,1.2,0.3c0.4,0,0.8-0.2,1.2-0.4c0.4-0.2,0.6-0.6,0.8-1c0.2-0.4,0.2-0.8,0.2-1.3C206,122.7,205.8,122.3,205.6,122
			L205.6,122z"/>
		<path class="st2" d="M207.5,78.4l-0.1,0c-1,0.2-2,0.6-2.8,1.2c-0.8,0.6-1.5,1.5-1.9,2.4c-1.1,2.5-4.9,18.8-3.2,21.2
			c1.3,1.9,1,1.5,0.4,3c-0.6,1.4-1.5-0.1-0.8,2.2c0.8,2.3,1.6,2,0.9,2.8c-0.7,0.9-1.5,0.7-0.8,2.2s0.6,2,0.7,2.5
			c0.1,0.6,0,4.5,0,4.5s4.3-0.3,6.4,0.7c0,0-1.2-3.9-0.5-4.6c0.7-0.6,1.5-0.7,0.9-1.6c-0.6-0.9-1.9-1-0.5-1.4s1-8.7,1-8.7
			C209.5,98.7,208.6,88.6,207.5,78.4z"/>
		<path class="st5" d="M233.2,122.5l0.3-6.9l4-0.4l-0.6,7.3c0.3,0.3,0.4,0.8,0.5,1.2c0,0.4,0,0.9-0.2,1.2c-0.2,0.4-0.5,0.7-0.9,0.9
			c-0.4,0.2-0.8,0.3-1.2,0.3c-0.4,0-0.9-0.1-1.2-0.3c-0.4-0.2-0.7-0.6-0.9-0.9s-0.3-0.8-0.2-1.2C232.8,123.2,233,122.8,233.2,122.5z
			"/>
		<path class="st2" d="M229.1,79l0.1,0c1,0.1,2,0.5,2.9,1.1c0.9,0.6,1.6,1.4,2,2.3c1.3,2.4,5.3,18.8,4.3,21c-0.9,2.1-0.9,1.6-0.2,3
			c0.7,1.4,1.5-0.2,0.9,2.1c-0.7,2.3-1.5,2-0.8,2.9c0.8,0.8,1.5,0.6,0.9,2.1c-0.6,1.5-0.5,2-0.6,2.6c-0.1,0.6,0.2,4.5,0.2,4.5
			s-4.3-0.1-6.3,1c0,0,1-4,0.3-4.6c-0.7-0.6-1.5-0.6-1-1.6c0.5-0.9,1.8-1.1,0.4-1.4c-1.4-0.4-1.4-8.6-1.4-8.6L229.1,79z"/>
		<path class="st5" d="M220.5,70.4c4,0,7.3-3.3,7.3-7.3s-3.3-7.3-7.3-7.3s-7.3,3.3-7.3,7.3S216.5,70.4,220.5,70.4z"/>
		<path class="st6" d="M225.6,69.3c1-0.8,1.1-2.3,2-3.3c1.5-1.6,2.1-3.3,1.4-5.2c-0.7-1.7-0.5-3.7-2-4.8c0.7-0.3,0.9-0.8,0.3-0.8
			c-0.4,0-2,0.8-1.2-0.2c0.8-1-0.7-0.6-0.6-1c0.1-0.4,0.7-0.6,1-0.3c-0.2-0.2-0.5-0.4-0.8-0.5s-0.6-0.1-1-0.1
			c-0.3,0-0.6,0.1-0.9,0.3c-0.3,0.2-0.5,0.4-0.7,0.7c-0.9-1.3-1.8-2.2-3.1-1.4c-1.3,0.8-1.3,1.8-2.7,1.6c-0.7-0.1-0.7,1.1-1.2,1.6
			c-0.2,0.3-0.5,0.5-0.8,0.6c-0.3,0.1-0.6,0.2-1,0.2c-0.6-0.1-1.1-0.9-0.8-1.5l-1.5,3.5l-0.6-0.8c-1,0.6-0.7,2.3,0.3,2.9
			c1,0.6,2.3,0.5,3.4,0.2c1.4-0.3,2.8-0.5,4.2-0.3c2.1,0.3,3.6,2.9,2.8,4.9c0.8-0.8,2.3-0.1,2.8,0.9c0.4,1.1,0.1,2.3-0.2,3.4"/>
	</g>
</g>
</svg>
