<?xml version="1.0" encoding="utf-8"?>
<!-- Generator: Adobe Illustrator 26.4.1, SVG Export Plug-In . SVG Version: 6.00 Build 0)  -->
<svg version="1.1" id="Слой_1" xmlns="http://www.w3.org/2000/svg" xmlns:xlink="http://www.w3.org/1999/xlink" x="0px" y="0px"
	 viewBox="0 0 266 200" style="enable-background:new 0 0 266 200;" xml:space="preserve">
<style type="text/css">
	.st0{clip-path:url(#SVGID_00000142165478097161722810000008731131447178926493_);}
	.st1{fill:#F2F2F2;}
	.st2{fill:#E6E6E6;}
	.st3{fill:#CACACA;}
	.st4{fill:#2F2E41;}
	.st5{fill:#3F3D56;}
	.st6{fill:#FFFFFF;}
	.st7{fill:#834D9B;}
	.st8{fill:#FFB6B6;}
</style>
<g>
	<defs>
		<rect id="SVGID_1_" width="266" height="200"/>
	</defs>
	<clipPath id="SVGID_00000176739392490711295400000003798534137505245593_">
		<use xlink:href="#SVGID_1_"  style="overflow:visible;"/>
	</clipPath>
	<g style="clip-path:url(#SVGID_00000176739392490711295400000003798534137505245593_);">
		<path class="st1" d="M228.6,17.6c-0.4-0.2-0.8-0.4-1.1-0.5c-11-5.1-22.8-9.3-35.2-12.4l-2.9,28.6h-18.2V0.5
			c-1.1-0.2-2.3-0.3-3.4-0.5v33.3h-21.6c-11.9,0-23.3-3.4-31.7-9.5c-8.4-6.1-13.1-14.3-13.1-23C100.2,1,99,1.2,97.9,1.4v31.9H80.3
			L77.5,6c-12.7,3.5-24.8,8.2-35.9,13.8c-0.2,0.1-0.4,0.2-0.6,0.3c-1,0.5-1.9,1-2.9,1.5v109.2H90l-0.9-9.2l-5-50.5h101.5l-5,50.5
			l-0.9,9.2h51.3V18.7C230.1,18.3,229.4,17.9,228.6,17.6z M97.9,62.9H83.2l-2.7-27.1h17.3V62.9z M167.7,62.9h-24.6v-0.5
			c0-0.3-0.1-0.5-0.2-0.8c-0.1-0.2-0.3-0.5-0.6-0.6c-0.3-0.2-0.6-0.3-0.9-0.4c-0.3-0.1-0.7-0.1-1-0.1h-10.7c-0.4,0-0.7,0.1-1,0.1
			c-0.3,0.1-0.6,0.2-0.9,0.4c-0.3,0.2-0.5,0.4-0.6,0.6s-0.2,0.5-0.2,0.8v0.5h-25.7V35.8h66.4V62.9z M171.2,62.9V35.8h17.9l-2.7,27.1
			H171.2z"/>
		<path class="st1" d="M254,184.7l0.3-5.9c2.9-1.5,6.2-2.2,9.5-2.2c-4.5,3.5-4,10.2-7.1,14.9c-1,1.5-2.3,2.7-3.8,3.6
			c-1.5,0.9-3.3,1.5-5.1,1.7l-3.8,2.2c-0.5-2.7-0.4-5.5,0.3-8.2c0.7-2.7,2.1-5.2,4-7.3c1.1-1.2,2.3-2.3,3.6-3.2
			C252.8,182.5,254,184.7,254,184.7z"/>
		<path class="st1" d="M58.4,177.8l-8.8-2.7c-1.2-4.8-1.1-9.7,0-14.5c3.6,7.9,14,9.7,20,16c1.8,2,3.2,4.3,4.1,6.9s1.1,5.3,0.7,8
			l1.9,6.3c-4.3-0.3-8.5-1.6-12.3-3.7c-3.8-2.1-7.1-5-9.6-8.6c-1.4-2-2.6-4.2-3.5-6.5C54.6,178.7,58.4,177.8,58.4,177.8z"/>
		<path class="st2" d="M246.8,198.2c0,0.2-0.1,0.4-0.2,0.5c-0.1,0.1-0.1,0.1-0.2,0.1c-0.1,0-0.2,0.1-0.3,0.1h-2.8
			c-0.1,0-0.2,0-0.3-0.1c-0.1,0-0.2-0.1-0.2-0.2c-0.1-0.1-0.1-0.1-0.1-0.2c0-0.1-0.1-0.2-0.1-0.3v-83.8c0-1.8-0.6-3.3-1.4-3.4H34.8
			c-0.8,0-1.4,1.5-1.4,3.4v83.3c0,0.2-0.1,0.3-0.2,0.5c-0.1,0.1-0.3,0.2-0.4,0.2c-0.6,0.1-1.1,0.1-1.7,0.1c0,0,0,0,0,0
			c-0.3,0-0.6,0-0.9,0.1h0c-0.2-0.3-0.3-0.6-0.5-0.9c0-0.1-0.1-0.2-0.1-0.3v-87.4c0-0.5,0-1,0.1-1.5c0-0.7,0.1-1.4,0.3-2.1
			c0.6-3.2,1.9-5.4,3.4-5.4h209.3c0.2,0,0.4,0,0.6,0.1c0.3,0.1,0.6,0.3,0.8,0.5c0.3,0.3,0.6,0.7,0.8,1.1c0.7,1.3,1.3,3.2,1.4,5.5
			c0,0,0,0,0,0.1c0,0.6,0.1,1.1,0.1,1.7l0,7.4l0,4.4l0.1,13.8l0,4.9L246.8,198.2z"/>
		<path class="st3" d="M265.4,199.9l-94.5,0.1c-0.1,0-0.2-0.1-0.3-0.1c-0.1-0.1-0.1-0.2-0.1-0.3s0-0.2,0.1-0.3
			c0.1-0.1,0.2-0.1,0.3-0.1l94.5-0.1c0.1,0,0.2,0,0.3,0.1c0.1,0.1,0.1,0.2,0.1,0.3s0,0.2-0.1,0.3
			C265.6,199.8,265.5,199.9,265.4,199.9z"/>
		<path class="st4" d="M148.4,76.6h-17.2c-0.2,0-0.5,0.1-0.6,0.3c-0.2,0.2-0.3,0.4-0.3,0.6v26.8h19.1V77.5c0-0.1,0-0.2-0.1-0.3
			c0-0.1-0.1-0.2-0.2-0.3c-0.1-0.1-0.2-0.2-0.3-0.2C148.7,76.6,148.6,76.6,148.4,76.6z M139.9,91.8c-0.5,0-1.1-0.2-1.4-0.6
			c-0.4-0.4-0.6-0.9-0.6-1.4v-3.1c0-0.5,0.2-1,0.6-1.4c0.4-0.4,0.9-0.6,1.4-0.6c0.5,0,1.1,0.2,1.4,0.6c0.4,0.4,0.6,0.9,0.6,1.4v3.1
			c0,0.5-0.2,1-0.6,1.4C140.9,91.6,140.4,91.8,139.9,91.8z"/>
		<path class="st5" d="M175.6,35.1H104c-0.6,0-1.2,0.2-1.6,0.7c-0.4,0.4-0.7,1-0.7,1.6V86c0,0.6,0.2,1.2,0.7,1.6
			c0.4,0.4,1,0.7,1.6,0.7h71.6c0.6,0,1.2-0.2,1.6-0.7c0.4-0.4,0.7-1,0.7-1.6V37.4c0-0.6-0.2-1.2-0.7-1.6S176.2,35.1,175.6,35.1z"/>
		<path class="st6" d="M175.6,37.2h-70.6c-0.3,0-0.6,0.1-0.9,0.4s-0.4,0.5-0.4,0.9v46.5c0,0.3,0.1,0.6,0.4,0.9
			c0.2,0.2,0.5,0.4,0.9,0.4h70.6c0.3,0,0.6-0.1,0.9-0.4c0.2-0.2,0.4-0.5,0.4-0.9V38.5c0-0.3-0.1-0.6-0.4-0.9S176,37.2,175.6,37.2z"
			/>
		<path class="st5" d="M130.3,103.2v2.7c0,0.1,0.1,0.3,0.1,0.4c0.1,0.1,0.2,0.2,0.4,0.2h18c0.1,0,0.3-0.1,0.4-0.2
			c0.1-0.1,0.1-0.2,0.1-0.4v-2.7H130.3z"/>
		<path class="st4" d="M161.3,107.4h-41.9c-0.1,0-0.2,0-0.3-0.1c-0.1-0.1-0.2-0.1-0.3-0.2c-0.1-0.1-0.1-0.2-0.2-0.4
			c0-0.1,0-0.3,0-0.4l0.7-3.5c0-0.2,0.1-0.4,0.3-0.5c0.1-0.1,0.3-0.2,0.5-0.2h40.6c0.2,0,0.3,0.1,0.5,0.2c0.1,0.1,0.2,0.3,0.3,0.5
			l0.6,3.5c0,0.1,0,0.3,0,0.4c0,0.1-0.1,0.2-0.2,0.4c-0.1,0.1-0.2,0.2-0.3,0.2C161.5,107.4,161.4,107.4,161.3,107.4z"/>
		<path class="st5" d="M121.7,103.2h-0.8c-0.1,0-0.1,0.1-0.1,0.2v0.6c0,0.1,0.1,0.2,0.1,0.2h0.8c0.1,0,0.1-0.1,0.1-0.2v-0.6
			C121.8,103.3,121.8,103.2,121.7,103.2z"/>
		<path class="st5" d="M123.8,103.2H123c-0.1,0-0.1,0.1-0.1,0.2v0.6c0,0.1,0.1,0.2,0.1,0.2h0.8c0.1,0,0.1-0.1,0.1-0.2v-0.6
			C123.9,103.3,123.9,103.2,123.8,103.2z"/>
		<path class="st5" d="M127,103.2h-0.8c-0.1,0-0.1,0.1-0.1,0.2v0.6c0,0.1,0.1,0.2,0.1,0.2h0.8c0.1,0,0.1-0.1,0.1-0.2v-0.6
			C127.1,103.3,127.1,103.2,127,103.2z"/>
		<path class="st5" d="M129.1,103.2h-0.8c-0.1,0-0.1,0.1-0.1,0.2v0.6c0,0.1,0.1,0.2,0.1,0.2h0.8c0.1,0,0.1-0.1,0.1-0.2v-0.6
			C129.2,103.3,129.2,103.2,129.1,103.2z"/>
		<path class="st5" d="M132.1,103.2h-1.6c-0.2,0-0.3,0.1-0.3,0.2v0.6c0,0.1,0.1,0.2,0.3,0.2h1.6c0.2,0,0.3-0.1,0.3-0.2v-0.6
			C132.4,103.3,132.3,103.2,132.1,103.2z"/>
		<path class="st5" d="M134.4,103.2h-0.8c-0.1,0-0.1,0.1-0.1,0.2v0.6c0,0.1,0.1,0.2,0.1,0.2h0.8c0.1,0,0.1-0.1,0.1-0.2v-0.6
			C134.5,103.3,134.5,103.2,134.4,103.2z"/>
		<path class="st5" d="M137.4,103.2h-1.6c-0.2,0-0.3,0.1-0.3,0.2v0.6c0,0.1,0.1,0.2,0.3,0.2h1.6c0.2,0,0.3-0.1,0.3-0.2v-0.6
			C137.7,103.3,137.6,103.2,137.4,103.2z"/>
		<path class="st5" d="M139.7,103.2h-0.8c-0.1,0-0.1,0.1-0.1,0.2v0.6c0,0.1,0.1,0.2,0.1,0.2h0.8c0.1,0,0.1-0.1,0.1-0.2v-0.6
			C139.8,103.3,139.8,103.2,139.7,103.2z"/>
		<path class="st5" d="M141.8,103.2H141c-0.1,0-0.1,0.1-0.1,0.2v0.6c0,0.1,0.1,0.2,0.1,0.2h0.8c0.1,0,0.1-0.1,0.1-0.2v-0.6
			C141.9,103.3,141.9,103.2,141.8,103.2z"/>
		<path class="st5" d="M145,103.2h-0.8c-0.1,0-0.1,0.1-0.1,0.2v0.6c0,0.1,0.1,0.2,0.1,0.2h0.8c0.1,0,0.1-0.1,0.1-0.2v-0.6
			C145.1,103.3,145.1,103.2,145,103.2z"/>
		<path class="st5" d="M147.1,103.2h-0.8c-0.1,0-0.1,0.1-0.1,0.2v0.6c0,0.1,0.1,0.2,0.1,0.2h0.8c0.1,0,0.1-0.1,0.1-0.2v-0.6
			C147.2,103.3,147.2,103.2,147.1,103.2z"/>
		<path class="st5" d="M150.1,103.2h-1.6c-0.2,0-0.3,0.1-0.3,0.2v0.6c0,0.1,0.1,0.2,0.3,0.2h1.6c0.2,0,0.3-0.1,0.3-0.2v-0.6
			C150.4,103.3,150.3,103.2,150.1,103.2z"/>
		<path class="st5" d="M152.4,103.2h-0.8c-0.1,0-0.1,0.1-0.1,0.2v0.6c0,0.1,0.1,0.2,0.1,0.2h0.8c0.1,0,0.1-0.1,0.1-0.2v-0.6
			C152.5,103.3,152.5,103.2,152.4,103.2z"/>
		<path class="st5" d="M155.4,103.2h-1.6c-0.2,0-0.3,0.1-0.3,0.2v0.6c0,0.1,0.1,0.2,0.3,0.2h1.6c0.2,0,0.3-0.1,0.3-0.2v-0.6
			C155.7,103.3,155.6,103.2,155.4,103.2z"/>
		<path class="st5" d="M157.7,103.2h-0.8c-0.1,0-0.1,0.1-0.1,0.2v0.6c0,0.1,0.1,0.2,0.1,0.2h0.8c0.1,0,0.1-0.1,0.1-0.2v-0.6
			C157.8,103.3,157.8,103.2,157.7,103.2z"/>
		<path class="st5" d="M159.8,103.2H159c-0.1,0-0.1,0.1-0.1,0.2v0.6c0,0.1,0.1,0.2,0.1,0.2h0.8c0.1,0,0.1-0.1,0.1-0.2v-0.6
			C159.9,103.3,159.9,103.2,159.8,103.2z"/>
		<path class="st5" d="M121.7,104.3h-0.8c-0.1,0-0.1,0.1-0.1,0.2v0.6c0,0.1,0.1,0.2,0.1,0.2h0.8c0.1,0,0.1-0.1,0.1-0.2v-0.6
			C121.8,104.4,121.8,104.3,121.7,104.3z"/>
		<path class="st5" d="M123.8,104.3H123c-0.1,0-0.1,0.1-0.1,0.2v0.6c0,0.1,0.1,0.2,0.1,0.2h0.8c0.1,0,0.1-0.1,0.1-0.2v-0.6
			C123.9,104.4,123.9,104.3,123.8,104.3z"/>
		<path class="st5" d="M127,104.3h-0.8c-0.1,0-0.1,0.1-0.1,0.2v0.6c0,0.1,0.1,0.2,0.1,0.2h0.8c0.1,0,0.1-0.1,0.1-0.2v-0.6
			C127.1,104.4,127.1,104.3,127,104.3z"/>
		<path class="st5" d="M129.1,104.3h-0.8c-0.1,0-0.1,0.1-0.1,0.2v0.6c0,0.1,0.1,0.2,0.1,0.2h0.8c0.1,0,0.1-0.1,0.1-0.2v-0.6
			C129.2,104.4,129.2,104.3,129.1,104.3z"/>
		<path class="st5" d="M132.1,104.3h-1.6c-0.2,0-0.3,0.1-0.3,0.2v0.6c0,0.1,0.1,0.2,0.3,0.2h1.6c0.2,0,0.3-0.1,0.3-0.2v-0.6
			C132.4,104.4,132.3,104.3,132.1,104.3z"/>
		<path class="st5" d="M134.4,104.3h-0.8c-0.1,0-0.1,0.1-0.1,0.2v0.6c0,0.1,0.1,0.2,0.1,0.2h0.8c0.1,0,0.1-0.1,0.1-0.2v-0.6
			C134.5,104.4,134.5,104.3,134.4,104.3z"/>
		<path class="st5" d="M136.5,104.3h-0.8c-0.1,0-0.1,0.1-0.1,0.2v0.6c0,0.1,0.1,0.2,0.1,0.2h0.8c0.1,0,0.1-0.1,0.1-0.2v-0.6
			C136.6,104.4,136.6,104.3,136.5,104.3z"/>
		<path class="st5" d="M139.7,104.3h-0.8c-0.1,0-0.1,0.1-0.1,0.2v0.6c0,0.1,0.1,0.2,0.1,0.2h0.8c0.1,0,0.1-0.1,0.1-0.2v-0.6
			C139.8,104.4,139.8,104.3,139.7,104.3z"/>
		<path class="st5" d="M141.8,104.3H141c-0.1,0-0.1,0.1-0.1,0.2v0.6c0,0.1,0.1,0.2,0.1,0.2h0.8c0.1,0,0.1-0.1,0.1-0.2v-0.6
			C141.9,104.4,141.9,104.3,141.8,104.3z"/>
		<path class="st5" d="M145,104.3h-0.8c-0.1,0-0.1,0.1-0.1,0.2v0.6c0,0.1,0.1,0.2,0.1,0.2h0.8c0.1,0,0.1-0.1,0.1-0.2v-0.6
			C145.1,104.4,145.1,104.3,145,104.3z"/>
		<path class="st5" d="M147.1,104.3h-0.8c-0.1,0-0.1,0.1-0.1,0.2v0.6c0,0.1,0.1,0.2,0.1,0.2h0.8c0.1,0,0.1-0.1,0.1-0.2v-0.6
			C147.2,104.4,147.2,104.3,147.1,104.3z"/>
		<path class="st5" d="M150.1,104.3h-1.6c-0.2,0-0.3,0.1-0.3,0.2v0.6c0,0.1,0.1,0.2,0.3,0.2h1.6c0.2,0,0.3-0.1,0.3-0.2v-0.6
			C150.4,104.4,150.3,104.3,150.1,104.3z"/>
		<path class="st5" d="M152.4,104.3h-0.8c-0.1,0-0.1,0.1-0.1,0.2v0.6c0,0.1,0.1,0.2,0.1,0.2h0.8c0.1,0,0.1-0.1,0.1-0.2v-0.6
			C152.5,104.4,152.5,104.3,152.4,104.3z"/>
		<path class="st5" d="M155.4,104.3h-1.6c-0.2,0-0.3,0.1-0.3,0.2v0.6c0,0.1,0.1,0.2,0.3,0.2h1.6c0.2,0,0.3-0.1,0.3-0.2v-0.6
			C155.7,104.4,155.6,104.3,155.4,104.3z"/>
		<path class="st5" d="M157.7,104.3h-0.8c-0.1,0-0.1,0.1-0.1,0.2v0.6c0,0.1,0.1,0.2,0.1,0.2h0.8c0.1,0,0.1-0.1,0.1-0.2v-0.6
			C157.8,104.4,157.8,104.3,157.7,104.3z"/>
		<path class="st5" d="M159.8,104.3H159c-0.1,0-0.1,0.1-0.1,0.2v0.6c0,0.1,0.1,0.2,0.1,0.2h0.8c0.1,0,0.1-0.1,0.1-0.2v-0.6
			C159.9,104.4,159.9,104.3,159.8,104.3z"/>
		<path class="st3" d="M171.3,43.6h-66.2c-0.1,0-0.1-0.1-0.2-0.2c0-0.1-0.1-0.2-0.1-0.4c0-0.1,0-0.3,0.1-0.4c0-0.1,0.1-0.2,0.2-0.2
			h66.2c0.1,0,0.1,0.1,0.2,0.2c0,0.1,0.1,0.2,0.1,0.4c0,0.1,0,0.3-0.1,0.4C171.5,43.6,171.4,43.6,171.3,43.6z"/>
		<path class="st5" d="M109.6,41.5c0.9,0,1.6-0.7,1.6-1.6c0-0.9-0.7-1.6-1.6-1.6s-1.6,0.7-1.6,1.6C108.1,40.8,108.8,41.5,109.6,41.5
			z"/>
		<path class="st5" d="M114.9,41.5c0.9,0,1.6-0.7,1.6-1.6c0-0.9-0.7-1.6-1.6-1.6c-0.9,0-1.6,0.7-1.6,1.6
			C113.3,40.8,114.1,41.5,114.9,41.5z"/>
		<path class="st5" d="M120.8,41.5c0.6,0,1.1-0.7,1.1-1.6c0-0.9-0.5-1.6-1.1-1.6s-1.1,0.7-1.1,1.6C119.7,40.8,120.2,41.5,120.8,41.5
			z"/>
		<path class="st5" d="M168.1,38.3h-3.7c-0.1,0-0.1,0.1-0.2,0.2c-0.1,0.1-0.1,0.2-0.1,0.4c0,0.1,0,0.3,0.1,0.4
			c0.1,0.1,0.1,0.2,0.2,0.2h3.7c0.1,0,0.1-0.1,0.2-0.2c0.1-0.1,0.1-0.2,0.1-0.4c0-0.1,0-0.3-0.1-0.4
			C168.3,38.4,168.2,38.3,168.1,38.3z"/>
		<path class="st5" d="M168.1,39.4h-3.7c-0.1,0-0.1,0.1-0.2,0.2c-0.1,0.1-0.1,0.2-0.1,0.4c0,0.1,0,0.3,0.1,0.4
			c0.1,0.1,0.1,0.2,0.2,0.2h3.7c0.1,0,0.1-0.1,0.2-0.2c0.1-0.1,0.1-0.2,0.1-0.4c0-0.1,0-0.3-0.1-0.4
			C168.3,39.4,168.2,39.4,168.1,39.4z"/>
		<path class="st5" d="M168.1,40.4h-3.7c-0.1,0-0.1,0.1-0.2,0.2c-0.1,0.1-0.1,0.2-0.1,0.4s0,0.3,0.1,0.4c0.1,0.1,0.1,0.2,0.2,0.2
			h3.7c0.1,0,0.1-0.1,0.2-0.2c0.1-0.1,0.1-0.2,0.1-0.4s0-0.3-0.1-0.4C168.3,40.5,168.2,40.4,168.1,40.4z"/>
		<path class="st7" d="M144,58.5h-8.3c-0.6,0-1.1,0.5-1.1,1.1l0,0c0,0.6,0.5,1.1,1.1,1.1h8.3c0.6,0,1.1-0.5,1.1-1.1l0,0
			C145.1,59,144.6,58.5,144,58.5z"/>
		<path class="st2" d="M149.3,62.8h-18.9c-0.6,0-1.1,0.7-1.1,1.6l0,0c0,0.9,0.5,1.6,1.1,1.6h18.9c0.6,0,1.1-0.7,1.1-1.6l0,0
			C150.4,63.5,149.9,62.8,149.3,62.8z"/>
		<path class="st2" d="M149.3,68.1h-18.9c-0.6,0-1.1,0.5-1.1,1.1c0,0.6,0.5,1.1,1.1,1.1h18.9c0.6,0,1.1-0.5,1.1-1.1
			C150.4,68.6,149.9,68.1,149.3,68.1z"/>
		<path class="st5" d="M106.3,110.6H85.4c-0.7,0-1.4,0.3-2,0.8c-0.5,0.5-0.8,1.2-0.8,1.9c0,0.7,0.3,1.4,0.8,1.9
			c0.5,0.5,1.2,0.8,2,0.8h7.7v21.1h5.6v-21.1h7.7c0.7,0,1.4-0.3,2-0.8c0.5-0.5,0.8-1.2,0.8-1.9c0-0.7-0.3-1.4-0.8-1.9
			C107.8,110.9,107.1,110.6,106.3,110.6z"/>
		<path class="st5" d="M119.9,148.9h-55c-5.3,0-10.5-2-14.5-5.5c-4-3.5-6.6-8.3-7.4-13.6l-1.9-7.2c-4-14.8-10.2-29-18.2-42.1
			c-3.7-6-5.6-11.8-1.3-17.3c0,0,0.1-0.1,0.1-0.1c3.5-4.5,20.6-5.5,26.2-5.7c0.2,0,0.4,0,0.7,0h34.2c0.2,0,0.4,0,0.7,0
			c3,0.1,6,1,8.5,2.6c2.5,1.6,4.6,3.9,6,6.6c1.4,2.8,2.1,5.9,1.9,9c-0.2,3.1-1.2,6.1-2.9,8.7c-12,18-15.7,29.4-11.9,36.7
			c3.6,7.1,14.8,10.7,35.1,11.4c5.5,0.2,8,4.4,8,8.3c0,3.8-2.4,7.9-7.7,8.2C120.3,148.9,120.1,148.9,119.9,148.9z"/>
		<path class="st5" d="M73.8,198.9h20.9c0.7,0,1.4-0.3,2-0.8c0.5-0.5,0.8-1.2,0.8-2c0-0.7-0.3-1.4-0.8-2c-0.5-0.5-1.2-0.8-2-0.8H87
			v-46.6h-5.6v46.6h-7.7c-0.7,0-1.4,0.3-2,0.8c-0.5,0.5-0.8,1.2-0.8,2c0,0.7,0.3,1.4,0.8,2C72.3,198.6,73,198.9,73.8,198.9z"/>
		<path class="st4" d="M72.1,59l0.4,2.7c0.2,1.3,0.9,10.6,0.4,11.7c0-2.1-3.7-5.3-6.1-4.6l-3.7,0.9l-2.3,0.5l-1.9,0.4l-5.5,1.3
			c0-0.1,0-0.1,0-0.2c0-0.1,0-0.2,0-0.3c-0.1-0.5-0.3-1.1-0.6-1.5c0,0.6-0.2,1.3-0.5,1.8c0,0,0,0,0,0c-0.1,0.2-0.2,0.3-0.3,0.5
			c0,0,0,0,0,0c0,0-1.1-18.8-1-18.9c0.1-0.1,0.2-0.2,0.3-0.4c0.1-0.1,0.2-0.2,0.3-0.4c0,0,0,0,0,0c0.3-0.3,0.5-0.6,0.8-0.9
			c0.1-0.1,0.2-0.2,0.3-0.3c1.4-1.3,3-2.3,4.8-2.9c0.2-0.1,0.4-0.1,0.6-0.2c0.2-0.1,0.4-0.1,0.6-0.2l0.1,0c0.1,0,0.2,0,0.3-0.1
			c0.1,0,0.3,0,0.4-0.1c1.7-0.3,3.4-0.2,5,0.3c0,0,0,0,0,0c1.4,0.4,2.6,1,3.8,1.8c2,1.4,2.8,3.7,3.4,6.2
			C71.8,57.2,71.9,58.1,72.1,59z"/>
		<path class="st8" d="M93.2,180l3.5,1.9l9.2-13.1l-5.1-2.9L93.2,180z"/>
		<path class="st4" d="M94.5,175.5l6.6,2l-1,2.7l4.5,6.4c0.2,0.3,0.3,0.7,0.3,1.1s-0.1,0.7-0.4,1c-0.2,0.3-0.6,0.5-1,0.6
			c-0.4,0.1-0.8,0.1-1.1-0.1l-7.6-2.8l-0.3-3.1l-1.5,2.5l-2.9-1.1L94.5,175.5z"/>
		<path class="st8" d="M112.4,121.2c-0.6,0.1-1.2,0.1-1.7,0c-0.6-0.1-1.1-0.3-1.6-0.7c-0.5-0.3-0.9-0.8-1.1-1.3
			c-0.3-0.5-0.4-1.1-0.5-1.6l-30.1-10.7l5.5-4.8l28.6,11.3c1,0,1.9,0.4,2.6,1c0.7,0.6,1.2,1.5,1.3,2.5c0.1,1-0.1,1.9-0.7,2.7
			C114.2,120.4,113.3,120.9,112.4,121.2z"/>
		<path class="st7" d="M69.2,79.8c0,0-5.2,0.1-5.6,6c-0.5,5.9,10.8,20.4,12.5,22.7c1.7,2.4,21.1,5.3,21.1,5.3l6.6-4.8
			c-6.9-4.5-13.2-7.9-17.5-7.7L69.2,79.8z"/>
		<path class="st8" d="M62.5,105.8l1.3,5.3c0,0,0,4.9,0.9,5.8c0.9,0.9,20.1-0.9,20.1-0.9s-2-7.8-2-13.7L62.5,105.8z"/>
		<path class="st4" d="M103,174.5l-6.9-3.8c-0.1-9.1,5.3-21.3,11.7-34.2c-14.4,2.5-27.9,3.3-39.6,0.3c-1.9-0.5-3.6-1.8-4.6-3.5
			c-1-1.7-1.3-3.8-0.8-5.7c0-0.2,0.1-0.4,0.2-0.6c1.4-4.3-1.7-7,1.2-11.8c7.6-2.6,14.8-3.4,21.4-1l4.1,9.2l20.5-2.7c1-0.1,2,0,3,0.2
			c1,0.3,1.9,0.7,2.6,1.4c0.8,0.6,1.4,1.4,1.9,2.3c0.5,0.9,0.8,1.8,0.9,2.8c0,0.2,0,0.4,0.1,0.7C114.5,147.7,109.8,165.3,103,174.5z
			"/>
		<path class="st8" d="M63.9,68.4c4.6-0.9,7.6-5.5,6.6-10.1s-5.4-7.6-10.1-6.7c-4.6,0.9-7.6,5.5-6.6,10.1
			C54.8,66.4,59.3,69.4,63.9,68.4z"/>
		<path class="st7" d="M59.7,71.7l7.9-0.5c0.3,0,0.7,0.1,1,0.2c0.3,0.2,0.5,0.4,0.6,0.7l2.2,5.4l9.3,7.7c0,0,3.7,4.7,3.7,10.7
			c0,6,1.3,20,1.3,20s-5.4-7.5-8.7-5.5c-0.6,0.3-0.8,1-1.4,1.4c-0.3,0.2-1,0-1.3,0.2c-4.6,2.7-9.4,5.3-9.8,4.9
			c-0.9-0.9-1.9-5.6-1.9-5.6l-7.3-26.6c-0.4-1.4-0.5-2.9-0.2-4.3c0.2-1.4,0.8-2.8,1.6-4c0.5-0.7,1-1.2,1.5-1.3
			C59.5,75,58.9,72.5,59.7,71.7z"/>
		<path class="st8" d="M126.9,191.5l3.4-2.4l-7.7-14.6l-5,3.5L126.9,191.5z"/>
		<path class="st4" d="M127.1,181.5l-5.2,4.6c-8.3-9.2-14.5-22.1-19.8-36.7c-13.9-4.1-24.4-10.6-33.5-18.4c-3.1-2.6-5.4-6-2.8-9.2
			c0.1-0.1,0.3-0.3,0.4-0.4c3.1-3.2,11-2.6,15.7-5.5l10.4,11l-0.7,3l19.5,6.6c0.9,0.3,1.8,0.8,2.5,1.5c0.7,0.7,1.3,1.5,1.8,2.4
			c0.4,0.9,0.7,1.9,0.7,2.9c0,1-0.1,2-0.4,2.9c-0.1,0.2-0.2,0.4-0.2,0.6L127.1,181.5z"/>
		<path class="st4" d="M125,190.3l5.4-4.1l1.7,2.3l8,0c0.4,0,0.8,0.1,1.1,0.3c0.3,0.2,0.6,0.5,0.7,0.9c0.1,0.4,0.1,0.7,0,1.1
			c-0.1,0.4-0.4,0.7-0.7,0.9l-6.7,4.5l-2.8-1.5l1.2,2.6l-2.5,1.7L125,190.3z"/>
		<path class="st8" d="M71.7,138c-0.5-0.2-1-0.6-1.4-1c-0.4-0.4-0.7-0.9-0.9-1.5c-0.2-0.5-0.2-1.1-0.1-1.7c0.1-0.6,0.3-1.1,0.6-1.6
			l-18-26.4l7.4-0.5l16.4,25.9c0.8,0.6,1.3,1.4,1.5,2.4c0.2,0.9,0,1.9-0.5,2.8c-0.5,0.8-1.3,1.5-2.2,1.8
			C73.6,138.4,72.6,138.4,71.7,138z"/>
		<path class="st7" d="M61.7,78.6c0,0-4.3-3-8.2,1.4c-4,4.4-3.6,22.6-3.7,25.5c0,0.9,1.4,2.9,3.2,5.2c0.8,1,1.8,2.1,2.8,3.2
			c0.6,0.6,0.1,1.9,0.6,2.5c0.6,0.6,2.2,0.5,2.7,1.1c2.5,2.7,4.6,4.7,4.6,4.7l8.3,0.1c0.1-6-4.1-11.3-9.5-16.4L61.7,78.6z"/>
		<path class="st4" d="M73.1,55.7c-0.3,0.2-0.6,0.3-0.9,0.5c-1.2,0.6-2.5,1.1-3.8,1.6c-0.2-0.6-0.6-1.1-1-1.6
			c0.1,0.6,0.1,1.3-0.2,1.9c-2,0.5-4.1,0.4-6-0.2c1.3,2.3,2.2,7.3,2.1,11.7c0,2.3-0.3,4.5-1,6.1l-0.9-2.7c-0.1-1-0.2-1.9-0.5-2.8
			c-0.6-2.6-1.1-0.9-2,0.4l-5.7,1.2c0-0.1,0-0.1,0-0.2c0-0.1,0-0.2,0-0.2c-0.1-0.5-0.3-1-0.6-1.5c0,0.6-0.2,1.2-0.5,1.8c0,0,0,0,0,0
			c-0.1,0.2-0.2,0.3-0.3,0.5c0,0,0,0,0,0c-3.7,0.5-6.3-18.5-1-18.8c0.2,0,0.2-0.2,0.3-0.4c0.1-0.1,0.2-0.2,0.3-0.4c0,0,0,0,0,0
			c0.3-0.3,0.6-0.6,0.9-0.9c0.1-0.1,0.2-0.2,0.3-0.3c1.4-1.3,3.1-2.3,5-2.9c0.2-0.1,0.4-0.1,0.6-0.2c0.2-0.1,0.4-0.1,0.7-0.2l0.1,0
			c0.1,0,0.2,0,0.3-0.1c0.1,0,0.3,0,0.4-0.1c0.5,0.3,0.9,0.6,1.2,1.1l3.6-0.7c0.1,0,0.2,0,0.3,0l0,0C69.2,47.4,72.2,51.1,73.1,55.7z
			"/>
		<path class="st4" d="M53.8,52.8c-0.8,0.6-1.6,1.2-2.6,1.4s-2.1-0.3-2.4-1.3c-0.3-1.2,0.7-2.3,1.6-3.1l2.9-2.5
			c0.5-0.5,1.1-0.9,1.8-1.3c0.3-0.2,0.7-0.2,1.1-0.2c0.4,0,0.7,0.1,1,0.3c0.3,0.2,0.6,0.5,0.7,0.9c0.2,0.4,0.3,0.8,0.2,1.2
			c0,0.8-0.3,1.6-0.7,2.3c-0.5,0.9-1.3,1.7-2.1,2.3c-0.8,0.6-1.8,1-2.8,1.2"/>
		<path class="st5" d="M74.7,111.7H54.6c-0.7,0-1.4,0.3-1.9,0.8c-0.5,0.5-0.8,1.3-0.8,2c0,0.8,0.3,1.5,0.8,2
			c0.5,0.5,1.2,0.8,1.9,0.8H62v22h5.3v-22h7.4c0.7,0,1.4-0.3,1.9-0.8c0.5-0.5,0.8-1.3,0.8-2c0-0.8-0.3-1.5-0.8-2
			C76.1,112,75.4,111.7,74.7,111.7z"/>
		<path class="st3" d="M151.1,199.9L0.5,200c-0.1,0-0.2-0.1-0.3-0.1c-0.1-0.1-0.1-0.2-0.1-0.3s0-0.2,0.1-0.3
			c0.1-0.1,0.2-0.1,0.3-0.1l150.6-0.1c0.1,0,0.2,0,0.3,0.1c0.1,0.1,0.1,0.2,0.1,0.3s0,0.2-0.1,0.3
			C151.3,199.8,151.2,199.9,151.1,199.9z"/>
		<path class="st8" d="M194.9,153.7l3.4,3.8l15.7-11.5l-5-5.5L194.9,153.7z"/>
		<path class="st4" d="M201.7,159.2L201.7,159.2l-0.3-3.6l-0.2-0.1l-0.9-0.4l-4.2-2l-0.1-0.1l-0.8-0.9l-4.6,4.3l6.3,6.9l4.3,4.7
			l0.1-0.1c0.6-0.5,1.1-1.2,1.4-1.9c0.3-0.7,0.5-1.5,0.6-2.3c0-0.8-0.1-1.6-0.4-2.4C202.7,160.5,202.3,159.8,201.7,159.2
			L201.7,159.2z"/>
		<path class="st8" d="M177.9,190.1l4.8,1.4l7.9-17.1l-7.1-2.1L177.9,190.1z"/>
		<path class="st4" d="M189.9,194.1c-0.4-0.7-0.9-1.3-1.6-1.8c-0.6-0.5-1.4-0.9-2.2-1.1l-2.2-2.9l-0.2,0l-5.8,0.5l-0.1,0l-1.2-0.4
			l-1.9,6l15.5,4.5l0.1-0.2c0.2-0.8,0.3-1.6,0.2-2.4C190.5,195.6,190.3,194.8,189.9,194.1z"/>
		<path class="st4" d="M216.6,97.9c0,0,30.3,29.2,11.1,38.2h-5.9c0,0-1.8-6.3-5.8-11.6c-0.6-0.7-2.7-0.6-3.2-1.3
			c-3.5-4.3-7.4-8.1-10.1-7.9l0.6,20.1l1,7.2c0.5,3.7-14.7,36.2-14.7,36.2l-9.6-3.8c0,0,10-26.7,10.1-30.6l-8-42.4L216.6,97.9z"/>
		<path class="st7" d="M219,99.6c-0.2,0.2-0.4,0.4-0.6,0.5c-0.4,0.2-0.8,0.4-1.2,0.5c-6.8,1.6-29.2,4.8-35,3.3
			c-0.7-0.2-1.2-0.5-1.3-0.8c-0.5-1.1-0.4-5.8-0.1-11.4c0.1-1.1,1.2-2.2,1.3-3.3c0-0.8-1-1.6-0.9-2.4c0.4-5.7,0.9-11.5,1.2-15.1
			c0.2-2.4,0.3-3.8,0.3-3.8L179,44.4l0.2-0.3l0.2-0.1l11.4-5.7l0.6-1.6c0.2-0.5,0.5-0.9,0.9-1.1c0.4-0.3,0.9-0.4,1.4-0.4l7.5,0
			c0.4,0,0.8,0.1,1.1,0.3c0.3,0.2,0.6,0.4,0.9,0.8l2,2.9l13.4,8.7l-0.1,0.2l-6.3,19.4l0,1.5v0L212,81l0.7,1.7l-0.7,2.7
			c0,0,0.3,3.2,2.1,5.5c1.6,2.1,3.7,4.4,4.7,6.2v0C219.2,98,219.4,98.9,219,99.6z"/>
		<path class="st4" d="M229.8,134.7l-1.6,2c0,0-15.1,10.2-15.6,11.1l-2.4,2.2l-5.8-6l3-3.6c2.4-2.9,5.5-5.2,9-6.7l4.6-3.9
			L229.8,134.7z"/>
		<path class="st8" d="M219.5,105.1l-2.7-26.8l-0.7-11l7.5-1.4c0,0-0.3,7.9,0.7,12.3c1,4.4,0.1,26.3,0.1,26.9
			c0.6,0.5,0.9,1.2,1.1,1.9c0.2,0.7,0.1,1.5-0.1,2.2c-0.3,0.7-0.7,1.3-1.3,1.8c-0.6,0.4-1.3,0.7-2.1,0.7c-0.7,0-1.5-0.2-2.1-0.7
			c-0.6-0.4-1.1-1-1.3-1.8c-0.3-0.7-0.3-1.5-0.1-2.2C218.5,106.3,218.9,105.6,219.5,105.1z"/>
		<path class="st7" d="M227.1,84.1l-9.7,2.1l-0.8-3.5l-1-1.1l-2-10.6l-2.8-6.2l0.7-21.2l7.2,3.9l0,0c1.1,1.2,1.9,3,3.1,4.7
			c4,5.5,4.4,19,4.3,26.4c0,0.1,0.1,0.2,0.3,0.4c0.7,0.6,1.1,1.5,1.3,2.4C227.8,82.4,227.6,83.3,227.1,84.1L227.1,84.1z"/>
		<path class="st8" d="M175.6,106.2l2.7-26.8l0.7-11l-7.5-1.4c0,0,0.3,7.9-0.7,12.3c-1,4.4-0.1,26.3-0.1,26.9
			c-0.6,0.5-0.9,1.2-1.1,1.9c-0.2,0.7-0.1,1.5,0.1,2.2c0.3,0.7,0.7,1.3,1.3,1.8c0.6,0.4,1.3,0.7,2.1,0.7c0.7,0,1.5-0.2,2.1-0.7
			c0.6-0.4,1.1-1,1.3-1.8c0.3-0.7,0.3-1.5,0.1-2.2C176.5,107.4,176.1,106.7,175.6,106.2z"/>
		<path class="st7" d="M184.3,66.4l-2.1,4.5l-0.7,1.6l-2,10.4l-1,1l-0.9,3.4l-0.4-0.1l-7.2-1.5l-2.1-0.4c-0.5-0.8-0.7-1.7-0.5-2.6
			c0.1-0.9,0.6-1.7,1.3-2.4c0.1-0.1,0.3-0.3,0.3-0.4c-0.1-7.2,0.3-20.4,4.3-25.8c1.3-1.7,2-3.4,3.1-4.6c0,0,0,0,0,0L179,45l0.2-0.3
			l0.2-0.1L184.3,66.4z"/>
		<path class="st8" d="M197.5,33c5.6,0,10.1-4.5,10.1-10.1s-4.5-10.1-10.1-10.1c-5.6,0-10.1,4.5-10.1,10.1S192,33,197.5,33z"/>
		<path class="st4" d="M208.6,18.9c0-1.7-0.2-3.9-1.4-5.7c-1-1.5-3-2.6-4.8-2.1c0-0.4-0.1-0.8-0.2-1.1c-0.2-0.3-0.4-0.6-0.8-0.8
			c-0.7-0.4-1.5-0.5-2.3-0.6c-1.9-0.2-3.8-0.4-5.7,0c-2.1,0.4-3.9,1.6-4.8,3.1l0,0l-0.2,0.9c0,0.1-0.1,0.2-0.1,0.3
			c-0.1,0.1-0.2,0.2-0.3,0.2c-0.1,0.1-0.2,0.1-0.3,0.1s-0.2,0-0.4-0.1c-0.1,0-0.3-0.1-0.4,0c-0.1,0-0.3,0.1-0.4,0.2
			c-0.1,0.1-0.2,0.2-0.2,0.3c0,0.1-0.1,0.3,0,0.4l0.1,0.4l-0.5-0.1c-0.1,0-0.3,0-0.4,0c-0.1,0-0.2,0.1-0.3,0.2
			c-0.1,0.1-0.1,0.2-0.2,0.4c0,0.1,0,0.3,0,0.4l0.1,0.4c-0.1,0-0.2,0-0.3,0.1c-0.1,0-0.2,0.1-0.3,0.2c-0.1,0.1-0.2,0.3-0.2,0.4
			c0,0.2,0,0.3,0.1,0.5c0.6,1.1,1.5,1.9,2.5,2.6c0.5,0.3,1,0.5,1.5,0.7c0.1,0,0.2,0.1,0.3,0.1c4.1,0.9,8.4,1.1,12.6,0.4
			c-0.2,0.9-0.3,1.7-0.3,2.6c0.1,1.1,0.8,2,1.6,2.3c0.2,0.1,0.4,0.1,0.6,0.1c0.2,0,0.4,0.1,0.6,0.1c0.3,0.1,0.5,0.3,0.7,0.5
			c0.2,0.2,0.3,0.5,0.4,0.8c0,0.3,0,0.6-0.1,0.9c-0.1,0.3-0.3,0.5-0.5,0.7c0,0,0.9,0.8,1,0.7c0.4-0.2,0.8-0.5,1-1
			C207.9,26.3,208.7,23,208.6,18.9z"/>
	</g>
</g>
</svg>
